<svg aria-hidden="true" version="1.1" id="Layer_1" xmlns="http://www.w3.org/2000/svg" x="0" y="0" viewBox="0 0 722.5 264.3" xml:space="preserve"><style>.st0{fill:#71bf4b}.st1{fill:#58595b}.st2{fill:#a7a9ac}</style><path class="st0" d="M35 18.5s-3.7-3.5-6.2-7.3c0 0-5.7-8.5-14.6-8.6-1.8 0-7.4-.1-7.6 4.7 0 1.4.6 5.2 9 6.6 8.2 1.6 13.3.1 19.4 4.6zM10.9 31.6c-1.7-4.9-4.6-7.9-4.5-11.7 0-1.5.9-5.2 3.7-5.2 2.1 0 4.2 2.5 3.8 5.2-.7 4.2-3 7.7-3 11.7zM14 41.8s-4.8-1.9-6.3-3.3c-.7-.6-3.2-3.7 0-5.6 1-.6 3.3-.9 4.2 1.3.9 2.2.3 6.6 2.1 7.6zM31.9 42.9s5.3-.8 5.4 1.2c-.1.3-.7.3-.7.3s.1.4-1.2.3c-.2-.3-1.1-.3-2-.5l-.5-.1s.1 1.1-3.8.9c-2-.1-3.2-1.1-6.4-1-2-.6-7.9-6.5-6.8-11.1.2-1.6.5-4.2 5.3-6.5.4-.3.5-1.8-1.4-1.8-1.1 0-2.2 1.2-2.8.9s-1.7-2.1.4-3.6c2.1-1.6 5-3 8.4-1.6.8.6 3 2.3 2.3 6.1.6 0 2.1-.6 4.2-3.4.2-1.6 1.7-2.1 2-2.1.2.4.2 1.5.2 1.5s1.6-1.2 1.9-1.2c.4 0 .6.6.5 2.1.4 1.1 1.1 1.7 1.6 2.4.3.5.3 1.5.8 2.9.1.2.1.8-.1.8-.5.3-.7.2-1.6.6.5.3 2.9.1 3 .7 0 .6-.2 2.3-1.3 2.4-.1-.3-.8-.6-1.1-.2-.3.4-.4.5-1 0-.3.4-1.4 2.2-3.2 2-.1.6-.3 1-.6 1.6 0 .4.2 3.9-1.5 6.4zM40.4 20.6s.1-3.8-3.6-6.8c-3-2.5-4.2-3.6-4.2-5.8 0-1.8.9-4.7 4.3-4.7 1.8 0 5.2 1.9 5.2 7.2.1 3-1.6 8.4-1.7 10.1zM67.8 19.4s-3.1-4.2-6.4-10.6c-1.3-2.5-4.4-6.3-9.3-6.3-1.9 0-5.5 1-5.5 4.8 0 1.5.9 6.3 7.9 7.3 11.6 1.9 13.3 4.8 13.3 4.8zM76.2 44.2s-3-11.1-9.7-17.9c0 0-6.1-7.1-12.6-6.9-2.6-.3-10.9 1.9-10.9 7.9.1 3.7 5.3 11 11.9 10.9 2.5 0 8.9-1.1 13.9 0 .5.2 5.8 1.3 7.4 6zM80.9 51.5c-.5-4-2.5-9.1-2.6-11.2s.8-6.3 4.7-6.2c3.8.2 4.6 4.4 3.5 6.7-2.8 5.3-4.7 6.8-5.6 10.7zM92.7 48.4s-1.1-6.1-2.3-11.1c-.6-2.5-2.7-11.1-2.7-13.6s-1.5-9.6 4-16.5c1.5-2.1 5.9-7.2 12.2-3.5 2.6 1.4 4.6 4.1 4.6 10 0 0 .4 5.6-5.9 13.4-7.9 10.5-9.3 14.5-9.9 21.3zM39 58.9s-6.4-4.6-10.5-9c-1.6-1.6-5.7-4.9-12.8-5.5-4.1-.2-11.1 1.6-11.3 8.1 0 1.8.7 8.6 10.1 8.3 2.9-.1 9.3-3.2 13.2-3.5 2.7-.2 6.7-.7 11.3 1.6zM52.7 64.6s-2.9-2.2-6.1-4.2c-1.9-1.2-9.2-6.8-8.9-12.4 0-1.7.8-7.4 6.4-7.3 1.4 0 7.3 1.5 7.5 7.4.1 1.8-1.2 5.4-1.4 8.7 0 1.3-.1 4.9 2.5 7.8zM39 62.5s-6-1.2-9.9-1.3c-1.6 0-9.8.9-10.4 6.9-.2 1.4 1.2 3.7 4.9 3.5 2.2-.2 4.6-1.5 7.5-5.1 1.3-1.3 3.3-3.5 7.9-4zM16.2 73.7s-.7-5.4-1.6-7.6c-1-2.2-4-5.6-7-3.9-2.3 1.7-1.4 5.5 1.9 6.7 1.1.4 4 1.7 4.3 1.9.4.2 2.1 1.7 2.4 2.9z"/><path class="st0" d="M16.3 81.8s-.6-2.8-1.7-6.6c-.5-1.8-2.3-5.5-6.2-3.5-1.3.6-2.9 3.4-.4 5.8.9.8 3 1.3 4.4 1.8.7.2 3 1.2 3.9 2.5zM81.4 74s-9-6.2-13.6-9.2c-1.1-.8-7.9-5.6-8.2-11.8-.4-3.8 1.2-8.3 4.8-9.1 3.2-.7 12.3 1.7 13.5 7.6.3 1.7.1 9.1.2 11.8 0 2.6-.4 8.1 3.3 10.7zM15.1 106.8C12.9 103.4 4.9 99 4.6 89.7c.2-1.8.5-7.6 7.2-7.9 2.5-.1 6.8 2.4 6.8 7.6-.1 1.5-.3 2.5-3.3 8-.5 1.3-2.3 5.3-.2 9.4zM19.5 120s-1.8-6.4-4.8-9c-4.1-3.8-9.3-2.8-10.4.7-.7 1.9 1.2 6.4 5.8 6.4 1.2-.1 4.2-.8 5-.8s2.7.2 4.4 2.7zM43.3 127.1s-5.3-4.1-9.1-5.4c-3.5-1.2-9-3.3-12.9-7.4-1.9-2.5-4.8-6-4.2-12.5.2-1.5 1.1-7.6 6.8-8.1 4-.2 9.3 4.2 10.5 8.4 1 3.3 1.4 8.9 2.9 13.4.3 1.3 3.1 9 6 11.6zM64.1 72.6s-1.5-.9-4.8-1.9c-2.6-1-4.9-2.9-5-5.8.1-1.3.6-3.6 3.6-2.4.7.4 2.5 1.1 3.2 4.6.2 1.1.2 3.1 3 5.5zM65.3 106.9s-5.8-9.3-7.1-14.1c-.9-3.1-2.5-7.6 1.2-13.5 1.2-2 3.6-3.6 6.4-3.4 2.2.2 5.8 3.2 5.8 8.4 0 1.6-.1 4.1-4 10.2-.7 1.3-4.1 7-2.3 12.4zM76.3 107.6s1.1-2.6-2.9-5.4c-1.7-1.1-5.9-4.2-3.4-7.9.4-.9 3.3-2.7 6 .2.4.7 3.2 4.5.3 13.1zM79.6 100.7s-.1-4.1-.3-9c-.2-1.7 1.3-6.8 6.1-6.5 1.6.2 4.3 3.5.7 7.2-2.8 2.5-5.7 5.3-6.5 8.3zM75.6 124.1s-.9-2.6-3.7-5.8c-1.3-1.5-3.5-4.6-3.4-7 .2-1.9 1.1-4.5 3.7-4.3 1.4 0 4.6 1.7 4.6 5.4 0 3.1-1.3 9.2-1.2 11.7zM80.6 114.9s-.4-2.4-1.3-4.9c-.5-1.3-1.5-5.4 1.9-5.5 1.5.2 3 1.7 1.6 5-.4 1-2.1 3.4-2.2 5.4zM78.4 142.6c.1.6-.5-4.4-1.6-8.9-.6-3.3-1.3-8.7 3.5-14.2 1.6-1.6 7.6-5.4 12.2-2 .7.6 4.4 4 .1 10.3-.9 1.2-1.5 1.5-7.4 4-.8.4-5.8 2.7-6.8 10.8zM64.5 127.7s-.6-3.1-3.8-4c-1.1-.3-5.4-.7-7.1-1.7-1.2-.7-4.3-3.3-2.3-7.1.6-1.4 4.2-3.6 8.4-.4 2.4 1.8 5.1 6.3 4.8 13.2zM49 161.2c-.1-.6-1.3-3.6-4.4-6.2-2.2-2.1-3.8-4.1-3.8-7 0-1.7.7-3.5 2.3-4 1.6-.4 3.9.7 4.9 4.4.7 2.5.3 9.7 1 12.8zM64.8 166.3s-2.8-4-6.7-8.2c-1.8-2-7.5-8.7-8.2-14-.4-3-.9-10 5.8-12.5 1.2-.5 2.5-.6 3.8-.4 3.8.6 7.5 3.6 7.8 10.4-.1 5.3-2.5 10.1-3.2 12.9-1.6 6.1-.3 9.8.7 11.8zM67.2 171.8s-8.8.8-12.6-2.2c-1.4-1.1-2.5-2.5-2.6-4.5-.1-1.5 2.4-4.7 6.4-2.3 2.1 1.2 2.9 3.2 4 5.8.5 1.6 2 3 4.8 3.2zM44.2 172.2s-2.7-1.6-6.6-2.6c-2.8-.6-6.7-2-10-4.4-1.4-1-4.1-5.1-.9-8.6.8-1.1 4-2.3 7.7.6.6.5 1.1 1 1.5 1.6 1.6 2.3 2.5 5.1 3.7 7.6.6 1.1 2.9 4.7 4.6 5.8zM27 172.7s-5.2-2.5-9.8-3.5c-2.3-.7-9.5-2.8-11-7.1-.4-1.3-1.6-5.3 1.4-7.1.6-.3 4.5-2.6 9.8 2 1.7 2 2.6 3.2 4.3 8.2.5 1.1 2.2 5.7 5.3 7.5zM32.5 186.3s-12 3.3-18.3 1.7c-3.1-.6-8.6-2.5-11.2-8.9-.4-1.1-2.7-9.5 5.5-9.9 1.1 0 6.2-.2 9.9 6.2 1.3 2.4 3.9 6.3 4.7 7.1.9.8 2.8 3.7 9.4 3.8zM54.7 180.7s-6.6 1.7-10.7 3.4c-.7.3-4.3 1.6-7.8 1-2.2-.4-4.2-1.6-5.3-3.6-1.1-1.9-1.5-4.5 1.7-7.2 1.1-.9 3.9-2.1 8-.2.6.3 1.1.6 1.6 1 1.2.9 3.5 2.4 5.9 3.7.6.4 3.2 2 6.6 1.9zM60.9 182.4s-2.5 1.8-7.2 2.7c-1.8.2-7.7 2-6.2 6.9.5 1.4 3.2 3 6.1 1 .8-.5 1.5-1.2 2-2 1.9-3.3 4.1-8.1 5.3-8.6zM18.8 191.3s-8.9-1-12 1.6c-.6.5-3 2.6-2.8 5.3 0 1.6.9 3.4 3.8 3 .9 0 3.7-1 5-4.7.2-.6 1.2-3.8 6-5.2zM39.6 190.1s-3.3 3.4-9.6 3.6c-3 .3-8 .2-13.7 3.9-.9.6-10.7 7.6-10.1 16.4.8 12.6 10.1 10 13.1 8.8.6-.2 1.1-.5 1.6-.9 2.3-1.7 5.4-4.8 6.3-9.9.6-3.8 1.4-9.5 4-12.3 1.3-1.4 8.4-9.6 8.4-9.6zM44 195.7s-1.1 1.4-4.4 3c-1.7.9-5.2 3.2-4.1 5.9.4 1 1.3 1.6 2.3 1.8 1.3.2 3.1-.3 4.1-3.4.9-3.4 1.4-6.1 2.1-7.3zM36.4 209.9s-.3 4.6-6 6.7c-2.3.7-4.9 2.9-4.6 6 0 1.3 1.2 4.6 6.6 2.5.9-.6 5.6-2.3 4-15.2zM52.1 196s-8.4 6.4-11.7 12.6c-.6 1.4-2.6 6-1.3 10.1.8 2.3 3.4 7.6 8.1 7.4 4.5-.5 5.6-5 5.9-8.4 0-2.5-.3-3.5-1.3-5.6-.6-.9-1.5-2.8-1.7-3.9-1.2-5.5-.5-8.7 2-12.2zM65.3 215.2s2.2 7.9-4.4 10.2c-1.1.4-2.3.5-3.3.1-1.3-.5-2.6-1.6-1.9-4.4.2-.8.6-1.6 1.2-2.2s1.6-1.2 3.5-.8c.5.1 4.9 1.1 4.9-2.9z"/><path class="st0" d="M60.5 190.7c-1.1 3.1-4.3 6.6-5.7 9.3-1.5 2.3-3.6 11.5 3 14.2 1.8.6 3.9.2 5.1-1.3 1.2-1.3 1.9-3.4 1.6-6.1-.1-1-.5-1.9-1-2.8-4.8-7.4-3-13.3-3-13.3zM17.8 152.1s-5.6-.3-8.3-1.6c0 0-5.8-2.5-6-6.9 0-1.9.6-5.2 5.1-5.4 1.6-.2 4.4 1.5 5.1 5.2.1 1.2 0 6.9 4.1 8.7zM17.4 123.7s-1.7.6-3.7 4.1c0 0-1.8 4.8-5.4 4.7-1.1.2-5.4-1.6-4.2-6 .4-1.2 2-3.2 6.3-2.9 2.6.3 6.1.4 7 .1zM37.6 130.7s-3.5-1.3-6.9-.9c-1.7.1-7.1 1.4-9.5-1.9-.7-.9-1.6-4.4 2.5-6.2 1-.2 4.3-1.2 7.1 1.6 1.8 2 5.1 6.6 6.8 7.4zM53.8 98.6s-.9 0-1.5-.4c-.6.2-1.5 1-1.6 2v9.5s-.1.7-1 .7c-.2.7-.7.8-.7.8h-8.4s-.2-.4-.2-.6c-.4 0-1.3.3-1.3-.7s.2-8.4 0-8.5-1.3-3.6-2.6-3.8c-.6-.2-.5-1.8-.5-2.8 0-.5-1.2-5.4-1.2-7.1 0-1.7 0-6.5.5-7.8s1.5-2.9 1.9-3.4c.1-.4.3-3.4.3-3.4s.8-2.2 1.9-3.3c.2-.7.2-3.9.2-3.9l.8 1.3.3-1.3s2 3 2.4 3.3c.4.2 3.9.2 4.2.1.3-.1 1.3-2.4 1.8-3.1.2.4.2 1.6.2 1.6l1-1.8s.1 4.5.1 5.2c.5.7 1 1.3 1 1.7 0 .3.1 2.1.2 2.2.1.2 2.5 2 3 4.6.4 2.6.9 4.7.8 6.5s-.5 5.8-1 7.4c-.1.7 0 4.9-.6 5zM107.3 86.4s-.1-.1-.3-.2c-.8-.4-3.2-1.4-7.6-2.4-4.3-1.3-13.4-3.6-15.9-10.3-.5-1.4-2.3-8.6 4-10 1.1-.2 7.9-1.1 11.2 7.7.8 2.1 4 13.1 8.6 15.2M83 62.9s.7-1.6 1.2-5.9c.4-2.2 1.2-5.8 4.6-5.5 1.4 0 2.8 2.2 1.6 4.5-.8 1.6-2.9 2.9-4.7 4-.5.4-2.3 1.7-2.7 2.9zM109.2 76.6s0-1.7-6.8-10.6c-1.7-2-5.2-7.7-6.2-9.7-1-2.2-3.1-8.2.2-15.3.9-1.9 3.8-5 7.1-2 .8.8 4.3 6.2 3.7 17.7-.7 12.5 2 19.9 2 19.9zM126.5 47.2s-3.1-7.2-4.2-10.2c-1-2.6-4.3-8.9-11-9.5-1.3 0-3.5.1-5.1 1.7-1 1-1.5 2.4-1.2 3.7.1.7.4 1.5.8 2.2 1 2.1 2.8 3.7 4.9 4.6 1.5.6 3.3 1.1 5.1 1.4 1 .2 8.8 2.2 10.7 6.1zM201.6 77.5s15.2 4.8 26.4 2.2c0 0 10-2.2 14.1-8.9 1.3-2.4 3.4-9.2-2.4-13.3-3.8-2.3-10.8-2.9-17.9 4.4-2.1 2.2-4.3 7.7-8.6 12-.5.6-5.7 5-11.6 3.6zM227.7 49.1c-.2.6 2.3-4.3 4.1-8.9.5-1.2 1.1-2.4 1.8-3.4 3.4-5 6.7-8.1 11.5-8.9 3.8-.9 9.7-.2 11.9 4.4.3 1 2.8 3.9-5 10.5-1.4.8-2.1 1.9-8.7 1.4-.5 0-1-.1-1.4-.2-2.1-.4-8.9-1.1-14.2 5.1zM169.2 117.7c12.9-2.5 22.7-.4 34.4-7.1 0 0 9.8-5.6 11.1-13.4 1.3-4.9.8-10.2-4.2-13.8-2.1-1.5-4.7-2-7.3-1.7-5 .6-10.5 3.5-14 10.5-3.3 7.3-2.6 8.5-6.8 14.5-3.1 4.7-6.1 9-13.2 11zM201.6 118.2s11.1 3.1 22.2 3c.8 0 1.6-.1 2.4-.2 3.7-.5 12.5-1.4 18.7-7.2 2.8-2.6 6.3-9.8 1.6-15-5.2-6.5-16.1-4.4-21.3 1.5-2.1 2.2-6.8 10.1-11.7 14.2-1.3 1-4.2 3.2-11.9 3.7zM231.3 33.5s.5-6.2.8-14.5c0-3.3-.9-9.6-5.4-13.6-3.2-3.1-8.2-4.4-12.3-2.1-1.7.9-2.7 2.7-2.9 4.6-.2 3.1.8 7.5 3.7 10 2.8 2.5 7.6 3.9 11 6.7 2.3 1.8 3.6 4.2 5.1 8.9zM188.3 155.1s4.5 3.5 10.7 7.1c2.6 1.9 9.1 5.5 16.4 6.6 1.1.2 12.9 1.9 18.7-5.6 8.5-9.6-.3-15.1-6.2-17-2.9-.9-8.4-.7-13 2.5-3.8 2.3-5.8 3.3-11.4 6.1-9.9 4.1-15.2.3-15.2.3zM82.9 12.1c-1.3 0-2.4.8-2.5.9.1-.1.2-.5.6-1.5.9-2 0-3.7-.5-4.2-.8-.6-1.5-.2-1.7-.1 0 0-.1-.2-.4-.3-1-.4-1.7 0-2.5.8-.9.8-.8 3.1-.4 4.9-.4-.6-1.5-1.7-3.1-2.5-2.2-.6-3.1.7-3.1 1.8-1.7 2 .1 3.3 1 3.8 1.5.9 2.8.7 4 .5-.3.1-3 1.3-4 2.2-1.5 1.5-.6 3.3.6 3.8.6 1.3 2.3 1.5 2.9 1.3 2.2-.8 3-4.4 3-4.4l.1-.4c-.3 2.7.8 4.3 1.4 5 1.5 1.7 3.2.3 3.5-.2 1.4-.2 1.6-1.3 1.6-2.1-.3-1.9-1.7-3-2.3-3.7 2.6.2 3.7-.3 4.2-.7.9-.7.9-1.8.6-2.4.7-1.8-1.3-2.4-3-2.5zm-.7 5.2-3.9-.9 2.9 2.7-3.3-2.4 1.6 3.7-2-3.6v4.1l-.4-3.9-1.7 3.6 1.2-3.8-3 2.6 2.8-3-3.9 1.2 3.8-1.6-4.1-.5 4.1.1-3.5-2.1 3.7 1.7-2.4-3.3 2.7 3.1-.8-4 1.2 3.9.9-4-.5 4.1 2.4-3.3-2.1 3.5 3.6-2-3.3 2.4 4.1-.4-3.9.8 3.8 1.3z"/><path class="st0" d="M77.3 14.4c-.8 0-1.5.7-1.5 1.5s.7 1.5 1.5 1.5 1.5-.7 1.5-1.5-.6-1.5-1.5-1.5zm-.7 1.7c-.1 0-.3-.1-.3-.3 0-.1.1-.3.3-.3.1 0 .3.1.3.3-.1.2-.2.3-.3.3zm.5.8c-.1 0-.3-.1-.3-.3 0-.1.1-.3.3-.3s.3.1.3.3c-.1.2-.2.3-.3.3zm.5-1.3c-.1 0-.3-.1-.3-.3 0-.1.1-.3.3-.3.1 0 .3.1.3.3-.1.2-.2.3-.3.3zm.5.8c-.1 0-.3-.1-.3-.3 0-.1.1-.3.3-.3.1 0 .3.1.3.3-.1.2-.2.3-.3.3zM30.5 77.5c-1.1 0-2 .7-2.1.8.1-.1.2-.4.5-1.2.7-1.7 0-3.1-.4-3.4-.6-.5-1.2-.2-1.4-.1 0 0-.1-.1-.3-.2-.8-.3-1.4 0-2.1.6-.7.7-.6 2.5-.3 4-.3-.5-1.2-1.4-2.6-2-1.8-.5-2.6.6-2.6 1.5-1.4 1.6.1 2.7.8 3.1 1.3.7 2.3.6 3.3.4-.3.1-2.5 1-3.3 1.8-1.2 1.2-.5 2.7.5 3.2.5 1.1 1.9 1.2 2.4 1.1 1.8-.6 2.5-3.6 2.5-3.6l.1-.3c-.3 2.2.7 3.6 1.2 4.1 1.2 1.4 2.7.2 2.9-.2 1.2-.1 1.3-1 1.3-1.7-.2-1.6-1.4-2.5-1.9-3 2.2.2 3.1-.2 3.5-.5.7-.6.7-1.5.5-2 .6-1.9-1.1-2.4-2.5-2.4zm-.6 4.2-3.2-.7 2.4 2.3-2.7-2 1.3 3.1-1.6-2.9v3.4l-.3-3.2-1.4 3 1-3.1-2.5 2.2 2.3-2.5-3.2 1 3.1-1.3-3.3-.4h3.4l-2.9-1.7 3.1 1.4-2-2.7 2.2 2.5-.7-3.3 1 3.2.7-3.3-.4 3.3 2-2.7-1.7 2.9 2.9-1.7-2.7 1.9 3.3-.3-3.2.6 3.1 1z"/><path class="st0" d="M25.9 79.4c-.7 0-1.2.5-1.2 1.2s.6 1.2 1.2 1.2c.7 0 1.2-.5 1.2-1.2s-.5-1.2-1.2-1.2zm-.6 1.3c-.1 0-.2-.1-.2-.2s.1-.2.2-.2.2.1.2.2-.1.2-.2.2zm.4.7c-.1 0-.2-.1-.2-.2s.1-.2.2-.2.2.1.2.2-.1.2-.2.2zm.4-1.1c-.1 0-.2-.1-.2-.2s.1-.2.2-.2.2.1.2.2-.1.2-.2.2zm.4.7c-.1 0-.2-.1-.2-.2s.1-.2.2-.2.2.1.2.2-.1.2-.2.2zM109.2 128c-1.1-.2-2.3.4-2.4.4.1-.1.3-.4.8-1.2 1.1-1.7.6-3.3.2-3.8-.6-.7-1.3-.4-1.5-.3 0 0 0-.2-.3-.3-.8-.5-1.6-.3-2.4.3-.9.6-1.2 2.6-1.2 4.3-.3-.6-1.1-1.7-2.4-2.7-1.9-.9-2.9.1-3.1 1.1-1.9 1.5-.5 2.9.2 3.6 1.2 1 2.4 1.1 3.5 1.1-.3 0-2.9.6-3.9 1.3-1.6 1.1-1.1 2.9-.1 3.5.3 1.3 1.8 1.7 2.4 1.6 2.1-.3 3.4-3.4 3.4-3.4l.2-.3c-.7 2.3 0 4 .4 4.7 1.1 1.7 2.8.8 3.2.4 1.3.1 1.7-.9 1.8-1.6.1-1.8-1-3-1.5-3.7 2.3.6 3.4.4 3.9.1.9-.5 1.1-1.5 1-2.1 1-1.7-.7-2.7-2.2-3zm-1.5 4.5-3.3-1.4 2.1 2.9-2.5-2.7.8 3.6-1.2-3.5-.7 3.7.3-3.6-2.1 2.9 1.7-3.2-3.1 1.9 3-2.2-3.7.5 3.6-.8-3.6-1.1 3.6.7-2.8-2.4 3 2.1-1.6-3.4 1.9 3.2-.1-3.7.4 3.7 1.5-3.4-1.1 3.6 2.7-2.5-2.5 2.8 3.5-1.2-3.4 1.6 3.7.3h-3.6l3.5 1.6z"/><path class="st0" d="M103.8 129.2c-.7-.1-1.4.3-1.6 1.1-.1.7.4 1.4 1.1 1.6.7.1 1.4-.3 1.6-1.1.1-.8-.4-1.5-1.1-1.6zm-1 1.3c-.1 0-.2-.1-.2-.3 0-.1.1-.2.3-.2.1 0 .2.1.2.3s-.1.2-.3.2zm.4.8c-.1 0-.2-.1-.2-.3 0-.1.1-.2.3-.2s.2.1.2.3c-.1.2-.2.3-.3.2zm.6-1.1c-.1 0-.2-.1-.2-.3 0-.1.1-.2.3-.2.1 0 .2.1.2.3s-.1.3-.3.2zm.4.9c-.1 0-.2-.1-.2-.3 0-.1.1-.2.3-.2.1 0 .2.1.2.3-.1.1-.2.2-.3.2zM178.6 96.3c-1.3 0-2.5.9-2.6 1 .1-.1.2-.5.6-1.5.9-2.1 0-3.8-.5-4.3-.8-.6-1.5-.2-1.7-.1 0 0-.1-.2-.4-.3-1-.4-1.8 0-2.6.8-.9.9-.8 3.2-.4 5-.4-.7-1.6-1.7-3.2-2.5-2.2-.6-3.2.7-3.2 1.9-1.7 2.1.1 3.3 1 3.9 1.6.9 2.9.7 4.1.5-.3.1-3.1 1.3-4.1 2.3-1.5 1.5-.6 3.4.6 3.9.6 1.3 2.4 1.5 3 1.3 2.3-.8 3-4.5 3-4.5l.1-.4c-.3 2.7.9 4.4 1.5 5.1 1.6 1.7 3.3.3 3.6-.3 1.5-.2 1.7-1.3 1.6-2.2-.3-2-1.7-3.1-2.4-3.7 2.7.2 3.8-.3 4.3-.7.9-.7.9-1.9.6-2.5 1-2-1.1-2.7-2.9-2.7zm-.7 5.3-4-.9 3 2.8-3.4-2.5 1.7 3.8-2.1-3.6v4.2l-.4-4-1.7 3.7 1.2-3.9-3 2.7 2.8-3.1-4 1.3 3.8-1.7-4.2-.4h4.2l-3.6-2.1 3.8 1.7-2.5-3.4 2.8 3.1-.9-4.1 1.3 4 .9-4.1-.5 4.2 2.5-3.4-2.1 3.6 3.6-2.1-3.4 2.4 4.2-.4-3.9.8 3.9 1.4z"/><path class="st0" d="M172.9 98.7c-.8 0-1.5.7-1.5 1.5s.7 1.5 1.5 1.5 1.5-.7 1.5-1.5c.1-.8-.6-1.5-1.5-1.5zm-.7 1.7c-.1 0-.3-.1-.3-.3 0-.1.1-.3.3-.3.1 0 .3.1.3.3-.1.2-.2.3-.3.3zm.5.8c-.1 0-.3-.1-.3-.3 0-.1.1-.3.3-.3.1 0 .3.1.3.3s-.2.3-.3.3zm.5-1.3c-.1 0-.3-.1-.3-.3 0-.1.1-.3.3-.3.1 0 .3.1.3.3s-.2.3-.3.3zm.5.8c-.1 0-.3-.1-.3-.3 0-.1.1-.3.3-.3.1 0 .3.1.3.3s-.1.3-.3.3zM251.2 80.9c-1.3 0-2.5.9-2.6.9.1-.1.2-.5.6-1.5.9-2.1 0-3.8-.5-4.2-.8-.6-1.5-.2-1.7-.1 0 0-.1-.2-.4-.3-1-.4-1.8 0-2.6.8-.9.9-.8 3.1-.4 5-.4-.7-1.5-1.7-3.2-2.5-2.2-.6-3.2.7-3.2 1.9-1.8 2 .1 3.3 1 3.9 1.6.9 2.9.7 4.1.5-.3.1-3.1 1.3-4.1 2.3-1.5 1.5-.6 3.4.6 3.9.6 1.3 2.4 1.5 3 1.3 2.3-.8 3-4.5 3-4.5l.1-.4c-.3 2.7.9 4.4 1.5 5.1 1.5 1.7 3.3.3 3.6-.2 1.5-.2 1.7-1.3 1.6-2.1-.3-2-1.7-3.1-2.4-3.7 2.7.2 3.8-.3 4.3-.7.9-.7.9-1.9.6-2.5.9-2.2-1.2-2.9-2.9-2.9zm-.7 5.3-4-.9 3 2.8-3.3-2.5 1.7 3.8-2-3.6V90l-.4-4-1.7 3.7 1.3-3.9-3 2.7 2.8-3.1-4 1.3 3.8-1.7-4.1-.5 4.2.1-3.8-2.2 3.8 1.7-2.4-3.4 2.8 3.1-.8-4.1 1.2 4 .9-4.1-.5 4.1 2.5-3.4-2.1 3.6 3.6-2.1-3.4 2.4 4.2-.4-3.9.8 3.6 1.6z"/><path class="st0" d="M245.5 83.3c-.8 0-1.5.7-1.5 1.5s.7 1.5 1.5 1.5 1.5-.7 1.5-1.5c0-.9-.7-1.5-1.5-1.5zm-.8 1.6c-.1 0-.3-.1-.3-.3 0-.1.1-.3.3-.3.1 0 .3.1.3.3s-.1.3-.3.3zm.5.9c-.1 0-.3-.1-.3-.3 0-.1.1-.3.3-.3.1 0 .3.1.3.3 0 .2-.1.3-.3.3zm.6-1.4c-.1 0-.3-.1-.3-.3 0-.1.1-.3.3-.3.1 0 .3.1.3.3-.1.2-.2.3-.3.3zm.5.9c-.1 0-.3-.1-.3-.3 0-.1.1-.3.3-.3.1 0 .3.1.3.3-.1.2-.2.3-.3.3zM196.8 193.1c-1.3 0-2.5.9-2.6 1 .1-.1.2-.5.6-1.5.9-2.1 0-3.8-.5-4.3-.8-.6-1.5-.2-1.7-.1 0 0-.1-.2-.4-.3-1-.4-1.8 0-2.6.8-.9.9-.8 3.2-.4 5-.4-.7-1.6-1.7-3.2-2.5-2.2-.6-3.2.7-3.2 1.9-1.7 2.1.1 3.3 1 3.9 1.6.9 2.9.7 4.1.5-.3.1-3.1 1.3-4.1 2.3-1.5 1.5-.6 3.4.6 3.9.6 1.3 2.4 1.5 3 1.3 2.3-.8 3-4.5 3-4.5l.1-.4c-.3 2.7.9 4.4 1.5 5.1 1.6 1.7 3.3.3 3.6-.3 1.5-.2 1.7-1.3 1.6-2.2-.3-2-1.7-3.1-2.4-3.7 2.7.2 3.8-.3 4.3-.7.9-.7.9-1.9.6-2.5 1-2.1-1.1-2.7-2.9-2.7zm-.7 5.3-4-.9 3 2.8-3.4-2.5 1.7 3.8-2.1-3.6v4.2l-.4-4-1.7 3.7 1.2-3.9-3 2.7 2.8-3.1-4 1.3 3.8-1.7-4.2-.4h4.2l-3.6-2.1 3.8 1.7-2.5-3.4 2.8 3.1-.9-4.1 1.3 4 .9-4.1-.5 4.2 2.5-3.4-2.1 3.6 3.6-2.1-3.4 2.4 4.2-.4-3.9.8 3.9 1.4z"/><path class="st0" d="M191.1 195.5c-.8 0-1.5.7-1.5 1.5s.7 1.5 1.5 1.5 1.5-.7 1.5-1.5c.1-.9-.6-1.5-1.5-1.5zm-.7 1.7c-.1 0-.3-.1-.3-.3 0-.1.1-.3.3-.3.1 0 .3.1.3.3-.1.2-.2.3-.3.3zm.5.8c-.1 0-.3-.1-.3-.3 0-.1.1-.3.3-.3.1 0 .3.1.3.3-.1.2-.2.3-.3.3zm.5-1.3c-.1 0-.3-.1-.3-.3 0-.1.1-.3.3-.3.1 0 .3.1.3.3 0 .1-.2.2-.3.3zm.5.8c-.1 0-.3-.1-.3-.3 0-.1.1-.3.3-.3s.3.1.3.3-.1.3-.3.3zM115.3 128.8s2.9-15.9-4-26.7c0 0-4.1-7.9-13.1-10.1-3.3-.8-9.9-.3-12.3 4.6-.6 1.1-.7 2.4-.7 3.7 0 4.8 2.1 9.3 9.5 13 3.4 1.7 6.6 1 13.1 4.3.8.3 6.7 3 7.5 11.2zM91.5 182.5c-5.3-9.3-9.8-14.2-12.6-22.9-1.3-4.2-2.3-11.6 5.4-17.5 1.3-.9 8.3-6.3 15.3 2.7.5.6.9 1.3 1.1 2 1.1 2.8 2.5 7.4-2.6 14.2-2.4 3.4-4.2 6.7-5 8.1-.7 1.3-4.1 7.2-1.6 13.4zM92.6 209.8s-6.1-11.1-12.2-16.8c-2.6-2.3-10.3-7.8-16.5-1.5-1.8 1.9-2.7 7.1 2.7 10.8 1.1.7 3.6 2.7 12.8 2.6 1 .1 10.6.4 13.2 4.9zM67.4 204s.6 4.1.5 9.3c0 1.4.1 2.8.4 4.2.8 3.1 2.7 7.3 7.4 7.1.8-.1 4-1.1 3.8-5.1-.1-1.9-1.1-3.7-2.4-5.1-1.5-1.5-3.5-3.2-4.7-4.1-1.9-1.4-4.8-4.7-5-6.3z"/><path class="st0" d="M91.5 212.3s-3.3-1.6-5.1-2.8c-2.2-1.4-6.1-3.1-8 .9-.4 1-.3 3 1.9 4 .8.4 1.8.4 2.7.1 1.9-.5 3-1.4 4.1-1.7.6-.1 3.1-.7 4.4-.5zM92.2 213.7s-.9 3.3-1.7 5.3c-.6 1.7-3.5 5.8-7.2 4.1-.4-.2-.8-.5-1.1-1-.6-1.2-.6-3.2 2.6-4.6 1.3-.5 4.9-1 7.4-3.8zM107.3 207.8s-1.1-6.3-1.4-8.7c-.3-2.2.1-7.4 4.2-7.4 1.4 0 4 1.2 2.3 6.2-1.1 2.4-2.6 3.8-3.4 5.2s-1.6 2.7-1.7 4.7zM109.8 211s-.9 3.2-.8 8.3c0 1.2.4 2.5 1.1 3.4.8 1.1 2.2 2.1 4.4 1.6 1.2-.4 3.1-2.5 1.7-5.5-.2-.5-.6-1-1-1.3-1.9-1.8-5.7-4.1-5.4-6.5zM112 210.2c2.6 0 10 .5 13.8 2.9 1.2.9 6 3.9 4.9 9.3-.1.7-1.4 4-6.1 3-1.1-.3-3.1-1.3-4.7-4.6-1.9-4.1-1.4-8.8-7.9-10.6zM136.4 218.4s5.5 5 10.5 6.7c1.6.5 3.3.6 4.9 0 1.2-.5 2.5-1.3 3.1-3 .2-.6.2-1.2 0-1.7-.4-.9-1.1-2.2-2.7-3-1.5-.8-3.3-.8-4.9-.3-1.8.6-3.9 1.5-5.3 1.7-2 .3-3.9.2-5.6-.4zM115.6 207.6s6-.2 12.9 4.1c2.6 1.6 12 7.8 18.3 3 2-1.8 4.3-4.1 1.3-8.2-.4-.6-1-1.1-1.5-1.6-1.3-1-3.4-2.3-7.4-2.7-.9-.1-1.8-.1-2.8.1-2.8.4-7.9 1.4-12.3 3.1-1.2.4-6.1 2-8.5 2.2zM143.7 198.2s5.4.7 7.8 6.9c.6 1.8 1.5 5.3 2 8.4.3 1.8.9 3.5 1.9 4.9 1.6 2.3 4.4 5.1 9.1 6.2 2.2.5 4.7-.1 6.1-1.9.9-1.1 1.6-2.7 1.5-4.9-.1-1.7-.6-3.3-1.4-4.7-2.6-4.3-9.9-13.1-27-14.9zM176 220.1s3.1 4.9 7.6 5c1 0 3.5-.5 3.5-3 0-1.1-.9-2.3-3-2.5h-.9c-1.6.3-2.4 1.3-3.4 1.4-1.2.2-2.7.1-3.8-.9zM169.5 209.3s2.9 1.8 5.9 5.4c.7.7 3.4 3.7 6.8 3.1 1.3-.2 2.4-1.1 2.9-2.3.4-.9.4-2.2-.7-3.6-.9-1-2.1-2.7-6.2-2.4-3.2.2-6.9.2-8.7-.2zM187.4 208.9s3.4 4.4 3.3 9c.2 2.2.1 6.5 6.9 6.3 1.8 0 5-.3 5.3-4.3.1-1.4-.1-2.9-.9-4.1-1-1.6-2.9-2.8-6.3-3.9-1.6-.4-5.6-.8-8.3-3zM193.8 207.6s7.7-.3 13.1 6.5c4.3 4.9 7.5 10.1 15.5 10.1 1.6 0 6.4-.6 7.6-5.6.3-1.2.3-2.5.1-3.7-.5-2.5-2-6.1-7.9-8.5-.4-.2-.8-.3-1.3-.4-3.1-.9-8.4-2.9-27.1 1.6zM231.5 207.8c.7 4.4 2.8 11.1 11.3 14.1 1.8.5 3.7.6 5.4-.1 1.9-.7 3.9-2.1 3.8-4.7-.1-1.8-1.1-3.5-2.7-4.5-1.5-.9-4-1.6-8.9-1.1-4.7.6-7.6.5-8.9-3.7zM245 210.2s7.8-.8 9.8-7.2c.2-.8.3-1.6.1-2.3-.3-1.2-1.1-2.5-3.1-2.2-1 .2-1.8.7-2.5 1.4-.8.9-1.6 2.4-1.5 3.9 0 .5.7 5.2-2.8 6.4zM199.8 200.3s10.9-7.4 13.1-8.7c1.9-.9 10.2-5.9 20.6-3.6.6.1 1.2.3 1.7.5 9.5 3.6 10.8 12.3 10.1 15.1-.6 2.9-4.7 5.9-14.2 2-2.7-1.4-10.5-5.2-12.8-6-6.1-2.4-13.7-1.8-18.5.7zM239.3 185.7s3.3-.4 5.7 2.6c.8.9 3.3 4.3 6.5 4.3.9 0 4.1-.9 3.3-4.3-.3-1.2-1.5-4.6-7.7-4.3-4.6.2-5.9 1.5-7.8 1.7zM132.1 84c2.7-3.7 2.1-4.4 2.1-5.8-.3-1.2-.5-1.9-.5-4.6-.3-5.3-4.4-8.6-5.3-9.4-1.6-.4-2.7-.9-3.2-1.3-.1-.7 0-1.1-.2-1.4-.2-.3-.4-.8-.4-1.7 1.3-.5 2-1.2 2.4-2 .6.1 1.3.6 2.1 2.7 0-.7 0-2.3-1.8-3.3 0-.1.1-.2.1-.4 1.7 1.2 2.2 2.6 2.7 3.5-.1-2-1.7-3.5-2.6-4.2V54.2c0-.4-.2-.8-.5-1-.5-.4-1.4-1-1.9-1.4 0-.4.1-1.2-.4-1.6s-2-.7-3.3-1c-.2-1.3-.5-2-.5-2l-1.2 2.3H118s-2.1-2.9-2.4-3.2c-.4-.3-.8-.2-1.1.2-.1 2.2-.9 6.2-1.1 7.3.2 1 .4 3 .2 3.9-.1.9-1 3.3-1.8 5.8-1 3 1.3 7.8 1.6 8.3 0 .4.8 4.3 1 4.6.2.4 0 2.7-.1 3.8-1.2.5-3.2 1.2-3.2 1.2-2.9 2.3-1.7 4.1-.5 4.9 1.4.7 4.3.5 5 .2.8-.7 2.3-.2 3.3-.4 1 0 .9.2.4.6-2 1.6-.8 3.1.6 3.2 1.8 0 2.7-.7 2.9-1.3.7.2 1.8 0 2.6-.4.9-.6 2.3-1 3.1-1.5 1.8.1 2.8-.2 3.3-.5.4-.2.6-.7.5-1.2-.2 0-.2-.3-.2-1zM162.5 149.9c-.1-.2 0-.9 0-1.8-.1-1.4-1.9-.9-3.3-.9-1.8.1-5.3 2.9-7.6 4.5s-4.8 5.2-4.8 5.2l-.3-.5v-.4l.2-1.3s5.8-6.3 6.2-6.4c.4-.1.5-.7 0-.8s-.5.5-.5.5-5.2 5.5-6 6.4c-.1-.1-.2-.1-.4-.2H145.7c-.1 0-.3.1-.4.1-.1.1-.2.1-.2.1-.7-.8-6.1-6.6-6.1-6.6s0-.6-.5-.4c-.5.1-.4.8 0 .8.4.1 6.4 6.6 6.4 6.6l.2 1.6-.3.5s-2.7-3.7-5.1-5.2-6.2-4.4-8.1-4.5c-1.5 0-3.4-.5-3.5.9 0 .9.1 1.6 0 1.8s-1.7 1.5.4 1.6c.3.8.1 2.2.6 2.3v3.8s1 1.7 1.6 1.9 3.2 0 3.2 0-3.1 4.1-2.9 4.6c.2.5 1.9 2.6 2.1 3.2.2.6.3 1.8 0 2.4.1.4.7.5 2.2.9.9.4 1.5.5 1.7 1.4.8 0 1.4.2 1.9.4.4.1 1.7 1 2.4.2s.4-1.7.5-2.1c.7-.4 1.2-.5 1.7-.7.7-.7.9-1.6 1-2.3 0-.7 0-2.3.7-2.7 0 .8.1 3 .6 3.7 0 .1.1.2.1.2.1 0 .1-.1.2-.3.5-.7.6-2.8.5-3.6.6.4.6 2 .7 2.7s.3 1.6.9 2.3c.5.2.9.2 1.6.7.1.4-.2 1.3.5 2.1s1.8-.1 2.3-.2c.4-.1 1-.4 1.7-.4.2-.9.8-1 1.6-1.4 1.4-.4 2-.5 2.1-.9-.2-.6-.1-1.8 0-2.4.2-.6 1.7-2.7 1.9-3.2s-2.7-4.6-2.7-4.6 2.5.2 3 0 1.5-1.9 1.5-1.9v-3.8c.5-.1.2-1.5.5-2.3 1.8-.1.4-1.4.3-1.6zM124.7 26.5s-.1-4.8-6.1-7.6c0 0-8.5-3-8.2-9.9.3-2.4 1.2-7.1 6.9-5.2 1.2.4 2.2 1.1 2.9 2.1 1.8 2.2 2.8 4.8 3.5 7.8 1 5.9.8 9.4 1 12.8zM126.7 14.3s-.1-10.9 8.8-11c2.2-.1 9.5 1.4 12.7 9.5.6 2.1 2.2 6.2 1.6 17.2-.5 6.7-.5 7.1.5 13.2-1.5-2.8-4.5-9.2-14.4-15.5-10-6.3-9.2-13.4-9.2-13.4zM153.7 29.3s.3-3.2-.8-7.9c-.1-.3-.2-1-.2-1.2-.3-2.6-.9-9.6 3.5-13.2 1.5-1.2 6.3-4.6 9.5-.2.5.8 1.3 3.6-.8 6.6-2 2.6-4 4.6-5.2 5.6-1.3 1-4.5 4.1-6 10.3zM172 22.9s.7-1 1.2-2.8.5-3.8.1-5.6c-.6-2.7-1.4-7 .9-9.4 1-1.1 3.9-2.8 6.2-.4.6.7 1 1.6 1.3 2.5 1.5 6.4-2.7 9-9.7 15.7zM209.7 25.1s-2.1-2.1-6.1-3.7c-3.2-.9-10.6-3.2-13.5-5.8-1.4-1.4-3-4.6-1.7-7.9.6-1.4 1.8-2.4 3.2-2.9 1.9-.6 5.5-.7 8.7 3 1.1 1.3 3.4 5.6 4.5 8.3 1.1 2.8 3.3 7.9 4.9 9zM208.1 12.9s-1.6-2.5-2.6-3.9c-.8-.9-1.5-4.2.9-4.5.6 0 2.5.4 2.2 3.5-.3 2-.7 3.4-.5 4.9zM209.9 33.9s3.3-6 8.6-7.1c1.4-.3 2.9-.1 4.2.7 2.1 1.3 4.7 4.8 4.7 10.8-.2 2.8-1 9.5-6.2 14.4s-12.7 10.7-22.6 9.4c1.8-.3 6 .3 8.1-7.5.8-4.3 1.1-6.6 1.2-9.8.2-4.8.2-8 2-10.9z"/><path class="st0" d="M192.5 57.8s1.4-.6 2.6-2.4c.7-1 1-2.1 1.2-3.3.3-2 1.4-6 4.9-6.2 1.3 0 4.3 1 3.3 5.2-.2.7-.6 4.7-12 6.7zM195.4 75.4s2.5-.2 4.5-2.4c1.4-1.6 2.3-2.9 3.9-3.8 1.5-.8 3.4-.8 4.9.1.9.6 1.7 1.4 1.6 2.6-.1 1-.6 3.9-5.8 4-4.9.1-9.1-.5-9.1-.5zM183 92.3s2.3-1.4 3.6-2.5c1-.9 4-3.1 5.3-7.2.5-1.7.6-3.6.2-5.4-.6-2.1-1.9-4.2-4.7-4.3-1.5 0-5.1 1.2-5.2 5.8 0 1.7 1.3 4 2 5.3.2 1.2 2.1 5.6-1.2 8.3zM147.9 90.2s4.4-4.2 7.6-8.6c.2-.3.5-.6.7-.9 2.3-2.6 6.9-7.7 12.9-7.5 2.1.1 8.5 1.1 9.5 6.1.2.8.1 1.5 0 2.3-.4 2.4-1.8 6.6-7.9 7.2-.8.1-1.7.1-2.5 0-4.5-.4-10.1-1-12.5-1-1.8.1-6 .9-7.8 2.4zM142.9 80.3s-.4-9.2 2.1-13.4c.8-1.5 3.8-5.7 7.8-6.4 1.1-.2 2.2-.1 3.2.4 1.4.6 2.8 1.8 2.8 4.2 0 1-.3 3.5-3.4 5.7-.9.6-2 1.1-3 1.4-3 .8-9.2 3.3-9.5 8.1zM126.8 106.2s1.1-3.3-1.4-6.2c-1-1.3-2.8-2.9-2.9-5.1 0-1.3 1.2-4.1 4.3-4.4 2.1 0 5.4 1.4 5.5 5.1 0 2.7-2.6 6.9-5.5 10.6zM138.9 106.6s2.1-6.3 5.7-10.7c1.3-1.6 3-2.9 4.9-3.8 1.7-.8 4-1.5 6.7-.7 1.2.3 2.3 1 3.1 1.9 1.3 1.4 2.2 3.7-.9 7-1.4 1.4-3.2 1.8-7.6 1.6-3.4 0-8.3-.6-11.9 4.7zM130 128.1s1.9-4.7 2.9-8.6c.1-.5.2-.9.4-1.3 1.3-3.3 3.2-6.1 4.3-7.2 3.4-3.5 4-4.8 9-6.3 2.3-.7 4.8-.3 7 .7 2 .9 3.9 2.6 3.9 5.7 0 1.4-.8 7.4-7.5 9.2-2.5.4-5.6.5-8.2.7-7.8.9-9 2.7-11.8 7.1zM155.4 119.7s2 .2 4 .1 4-.6 5.7-1.7c1.6-1 3.1-2.6 3.2-5.2 0-1.5-1-3.2-3.7-3.1-1.5 0-3.6.5-4.3 3-.2 1.3-.7 6.2-4.9 6.9zM175 126.1s4.6 7.8 13.6 7.8c1.9 0 7.6-.5 9.6-5.3.7-1.8.5-3.8-.8-5.3-.9-1-2.3-1.8-4.4-1.8-1 0-4.4.5-6.3 2.7-1 .9-3.2 3.1-5.4 3.6-1.6.4-3.4.7-6.3-1.7zM147.2 143.2s3.6-7.2 8.8-9.9c1.8-.8 7.5-2.7 13.3-.2 1.3.6 4.6 2.6 5.9 4.8.6.9.6 2.1.2 3.1-.5 1.3-1.6 3.1-4 4.1-1.8.8-3.9.8-5.8.2-1.9-.6-4.4-1.5-6.5-2.5-2.1-.6-4.3-1.8-6.8-1.7-.9 0-3.3.3-5.1 2.1zM144.9 144.1s-2.1-5.8-.5-9.4c.4-.9 1.2-2.7 3.2-2.6.9.1 2.6.7 2.5 2.9 0 1.1-.9 2.7-2.1 3.7-1.2 1.1-3.2 2.2-3.1 5.4zM144.2 147.1s-2.5-5-4.6-7c-1.6-1.3-4.1-2.8-6.5-1.4l-.3.3c-1 1.1-1.6 3.1.6 5 .7.6 2.5 1.2 5.4 1 1.6.2 3.2.2 5.4 2.1zM115.1 156.8s2.6-5 7.2-6.2c.8-.2 1.7-.2 2.6.1.9.3 1.8 1.1 1.8 2.5 0 1.2-.7 2.9-4 3-1.8 0-2.9-.4-4.1-.4-1.3 0-2.5.4-3.5 1zM108.6 172.9s2.1-7.6 4.1-10.1c1.9-2.9 4.7-5.1 8-5 1.3.1 4.7.5 4.7 3.6 0 1-.5 4.8-4.2 6.2-1.3.3-3.7.6-5.7.7-.8.1-1.6.2-2.3.5-1.4.4-3.5 1.5-4.6 4.1zM133.9 43.8c0-.4-.5-4-3.3-6-1.2-.9-2.9-2-3.9-4-.6-1.4-.7-3 .1-4.4.6-1.2 1.7-2.4 3.4-2.4 1.3.1 5.2.7 5.5 6.8 0 2.4-1.3 7.5-1.8 10zM145.1 62.6s-.3-2.2-3.4-7c-1.9-2.9-3.3-5-4.1-7-1-2.4-.9-5.2.6-7.3.9-1.3 2.3-2.4 4.2-2.4 1.3 0 4.9.9 5.9 5.5.3 1.3.2 2.7 0 4-.5 2.3-1.2 4.8-1.7 6-.4 1.3-1.4 2.7-1.5 8.2zM158.1 53.1s1.4-1.9 0-10.6c-1.3-8.1-2.3-10.6.5-16.5 1.9-4.1 5.1-4.8 7.2-4.8 1.2 0 2.4.4 3.4 1.1 1.7 1.2 3.6 3.7 3.3 7.1-.4 3.5-.9 5.5-4.8 10.5-.5.7-1.1 1.2-1.7 1.9-5.1 5.3-6.8 9.4-7.9 11.3zM236.8 12.2s0-2-1.2-3.9c0 0-1.8-3.1.4-4.3.6-.3 1.3-.4 1.9-.1s1.1.9 1.1 2.3c0 .3 0 .6-.1.9-.6 1.4-2 3.8-2.1 5.1zM235.7 28.2s1.4-4.2 1.7-5.9c.3-1.8.9-7.9 3.9-12.5 1.2-1.5 2.3-3 5.9-3.7 1.2-.2 2.5-.2 3.7.2 1.6.5 3.5 1.8 3.5 5.1 0 2.9-.6 5.2-3.8 7.1-.7.5-1.5.9-2.2 1.3-1.8.8-4.8 2-7 3.2-1 .5-4.4 2.9-5.7 5.2zM245.5 23.2s1.7-.6 3.6-2c1.6-1.3 3.3-2.6 5.3-2.8.6-.1 1.1 0 1.6.2.9.4 1.7 1.1 1.8 2.4 0 .8-.6 3.4-4.1 3.3-2.1 0-4.4-1.2-8.2-1.1zM244.8 70.9s2.1-3.7 1.9-9.7c0 0-.5-4-.4-6.4 0-2.1 1.2-7.4 6.7-7.5 2.3 0 5.6 2.2 5.4 6.6-.2 2.1-.2 5-5.4 9.7-1.1 1-5.2 3.4-8.2 7.3zM243 74s5.2-4.7 9.1-4.7c1 0 4.1.6 4.1 3.5-.2 1.3-.9 3.2-3.6 3.1-1.3 0-2.9-.7-4.6-1.6-1.3-.7-3-.9-5-.3zM217.8 97.9s5.4-2.7 6.9-7.9c.4-1.3.4-2.8 0-4.1-.1-.2-.2-.4-.3-.7-1.1-2.3-4.1-2.8-6-1-.8.8-1.4 1.9-1.4 3.2 0 .9.7 2.7 1.3 3.8.3.6.6 1.3.7 2 .3 1.5.2 3.6-1.2 4.7zM249.2 118s2.9-3.5 4.7-5.3c.1-.1.2-.3.4-.4.6-.9 1.3-1.9 1.2-3.2 0-1.4-.9-3.2-2.6-3.4-1.7 0-2.9 1.1-3.2 3.4-.1 1.2.2 2.8.2 4.2s-.2 4-.7 4.7zM237.9 134.5s3.5-2.8 4.7-4.2 2.3-3.3 3-6.3c.4-1 2.2-5 6.6-5.1 1.6 0 4.4 1.1 4.5 5.3 0 .6-.2 4.7-5 7.4-2 1.2-4.3 1.7-6.7 1.7h-1.5c-1.2 0-2.4.1-3.5.5-.6.2-1.4.5-2.1.7zM218.5 140.2s3.7-1 5.4-1.3c1.6-.3 10-1.5 12-7.1.3-.9.4-1.9.2-2.8-.3-1.2-1.3-2.5-3.6-2.4-1 0-4.6.7-6.5 4.2-.8 1.9-2.9 7.6-7.5 9.4zM183.6 148.5s4.6 5.3 9.3 5.5c.8 0 2.5-.1 3.4-1.4.6-.8.6-1.9.1-2.7-.5-.9-1.6-1.9-3.7-2-2.5-.1-3.3 1-4.9 1.1-1.4.3-3.4-.1-4.2-.5zM176.2 149s7.4.1 8.2 8.1c.1 1 0 2-.1 3-.5 3.2-2.5 9.7-11 14.2-2.2 1.2-7.9 4-20.8 5.9 2.4-1.1 4.6-1.7 7-5.7.7-1.1 1.2-2.2 1.5-3.4.7-2.1 1.6-5.1 2.1-7.6.7-3.3 3.5-14.5 13.1-14.5zM187.6 157.4s.6 6.9 3 12.1c1 2.2 2.6 4.2 4.7 5.6 1.3.8 2.7 1.4 4.7 1.2 2.3-.3 4.4-1.1 5-3.6.2-.6.2-1.3.1-2-.2-1.6-.8-3.4-4-5.2-1-.5-2-.9-3.1-1.2-1.2-.3-2.3-.6-5.3-1.6-.9-.3-1.8-.8-2.5-1.5-1.2-1.1-2.4-2.6-2.6-3.8zM165.6 184.8s3.2-.6 7.7-5.3c2.9-2.9 6.2-7.7 11.9-7.6 1.4 0 6.5 1 6.4 5.2 0 .9-.6 5.8-6.4 7.4-1.2.3-2.5.4-3.8.4-3-.1-8.1-.4-10-.4-.9-.2-4-.4-5.8.3zM146.9 191.8s4 3 7.5 3c.6 0 3.7-.3 4.8-2.4.5-.9.5-2-.1-2.8-.3-.5-.9-.9-1.8-1.2-.6-.2-1.2-.2-1.8 0-1.1.3-2.3.8-3.3 2-.7.6-1.4 1.4-2.6 1.5s-2.7-.1-2.7-.1zM153.2 196.5s5 1.2 8.8 4.8c2 1.5 5.4 4.9 10.7 5 2.8 0 6-.9 7.4-4.7.4-1.3.4-2.6 0-3.9-.4-1.4-1.3-3.1-3.1-4.3-1.9-1.3-4.3-1.6-6.5-1.1-6.3 1.6-11.1 4-17.3 4.2zM114.8 193.4s.1-2.7.2-5.1c.1-2.2.3-6 4-7.1 1-.3 2.2-.3 3.2.2.9.5 1.8 1.3 1.7 3 0 .8-.5 3.1-2.9 3.9-.9.4-4.9 2-6.2 5.1zM112.7 205.6s5-12.9 11.7-17.5c1.7-1.1 5.5-4 10.2-3.8 1.5 0 5.6.7 8.1 3.1 1.7 1.6 1.9 3.9 1.4 6.2-.2 1-1.6 4.3-5.4 6-1.5.7-3.2 1-4.9 1-2.1 0-5-.2-9.2-.3-2.2-.1-9.5 0-11.9 5.3zM199.3 189.9s5.9-.1 10.4-1.3c1.4-.4 2.8-.9 3.9-1.9.8-.7 1.6-1.7 2-3.4.2-.8.2-1.7 0-2.5-.5-2.3-1.9-4.5-4.6-4.6 0 0-4.1-.3-5.4 4.4-.3 1.2-1.4 4.6-2.3 5.9s-2 2.5-4 3.4zM212.6 173.4s2.2-.3 4-.9c1.8-.5 6.6-1.9 9.8.9 1.6 1.3 2.1 2.9 2 4.6 0 .9-.9 3.1-3.8 3.4-1.7 0-4.1-.1-5.2-2.9-.7-1.5-1.9-2.9-2.8-3.6-.6-.6-2.9-1.3-4-1.5z"/><path class="st0" d="M224.6 183.4s5.7.1 8.2-6.7c.8-2.2 2.6-7.8 4-11.1.6-1.4 1.4-2.6 2.3-3.7 1.8-2 5.2-5.1 9.5-4.9 1.2 0 7.7.1 7.2 9.5-.3 3.8 0 9.6-5.7 12.5-1.7.9-11.9 6.4-25.5 4.4zM229.4 141.9s5.1-4.6 11.2-5.2c.8-.1 1.6-.1 2.5 0 3.2.4 11.7 2.3 13.6 9 .5 1.7.4 3.5-.2 5.1-.7 1.6-2.1 3.4-5.3 3.6 0 0-4.4.1-7-2.9-.9-.9-1.7-1.9-2.2-3.1-1-2-2.1-4.2-3-5.1-1.3-1-3.6-4.2-9.6-1.4z"/><path class="st1" d="M127 260.7c.2.5-.2 1-.8 1H90.3s-1.4-.5 0-1.7 3.9-3.3 5.4-6.6c0 0 2.7-5.1 2.5-16.7 0-.4 0-.8-.1-1.2-.5-3.4-3.2-21.4-3.8-24.3-.5-2.6-1.4-9.4-1.7-12-.1-.7-.1-1-.9-1.7-2.7-2.1-10.9-9.2-17.6-18.4-1.2 0-11.1-.2-15-1.2 0 0-5.7-.6-12.1-8.8-2.2-2.9-5.5-9-9.6-13.2-1.7-1.3-3.4-2.9-7.3-3.5s-8.2-.9-11.9-.5c-.1-1.1 3.7-1.3 5.5-1.3s10.4 0 13.7 3.4c4.8 4.1 7.1 7.2 9.1 10s5.6 6.9 9.1 8.5c1.9 1.1 5.9 3.1 15.1 2 .2 0 .4-.3.3-.5-1.1-2.7-3.5-8.4-2.6-20.1.8-7.1 1.3-18.5 0-26.5-1.3-5.5-1.6-10.2-7-16.4-2.1-2.4-7.2-10.1-26.4-12.8-1.1-1.4 10.7.3 19 4 1 .5 1.9 1 2.8 1.6 3.1 2.1 8.7 6.2 11.6 13.8 3.3 8.7 4.8 17.6 4.9 21.7.1 3.6-.1 10.3-.3 14.6-.1 1.4-.1 2.8.1 4.2.5 6.2 1.9 11.2 5.8 16.2 3.6 4.7 9.2 11.2 14.9 13.1 1.5-4 1.7-15.8 17.2-43.7 0 0 9.1-16.1 9.8-17.7.8-1.6 1.9-8.3 1.6-11.9-.3-3.6-2.6-12-7.8-16.1s-8-6.1-12.9-8.3C96.9 87.5 87.4 83 84 81.6s-14-6.4-20.5-13.4c-2.1-1.9-6.2-8.6-8.2-17.6-.8-3.5-1.5-9.1-1.2-10.4.9.5 1.6 4.7 2.1 7.2s2.4 9.7 3.2 11.3 4.4 8.7 9.7 12.2C74.3 74.4 84 80.4 93.4 84s16.1 6 22.5 10.7c4 3.5 10.1 9.2 10.7 20.1 2.5-4.7 5.4-11.6 6.5-15.3s3.8-12.2 3.9-19.3c.1-7-.2-10.4-2-20.3-2.3-8.6-4.9-16.3-7.1-19.7-2.2-3.4-4.9-7.4-6.1-9.2-1.2-1.8-5.4-6-5.6-7.5 1.4.5 3.1 2.1 5.6 5.3 2.5 3.2 9.9 13.2 12 20.1 3.1 9.4 3.6 11 4.1 13.5s1.8 7.8 2.1 15.4c-.1 3.1-.5 9.4-.9 12.5 3.1-4.1 9.5-14.6 19.5-18.8 6.2-2 8.3-3.2 20.7-3.8 8.9-.4 14-.3 16.9-.4 2.9-.1 10-1.4 12.7-2.4 2.8-1 10.4-5.3 12.3-7 1.8-1.6 6.3-6.1 7.1-7.4 0 2.1-3.9 6-5.7 7.7-2.5 2.3-9.8 7.6-17.9 9-5.4 1.3-12 1.2-17.4 1.6s-18.4.7-26.6 4.9c-3.1 1.9-9.6 3.6-17.7 18-7 12.8-7.1 12.9-9.4 17.4-2.5 7.6-12.9 28.2-12.9 28.2s9.8-10.9 37-13.3c.2 0 .5 0 .7-.1 10.1-1.5 26.1-3.7 31.1-5s14.4-4 22.8-11.3c4.7-4.6 7.1-5.9 18.2-23.2 0 0-.5 3.5-1.6 5.1-1.7 2.9-3.3 6.2-8.9 12.9-.2.2-.4.5-.6.7-3 3-8.6 8.4-12.5 10.6-2.8 1.7-10.1 7.1-42.1 12 .9.5 7.1 1.9 13.3 8.7 3.4 2.8 9.3 8.6 15.1 10.2 2.5 1 12.2 2.7 18.9 1.3-3.4 1.6-11 1.8-15.5 1.1s-7.9-1-17.2-8.7c-4.3-3.7-9.3-8-14.9-9.5-3.9-1.2-8.9-1.5-19 1 0 0-18.6 3.6-28.5 20.2-2.4 4.5-11.5 18.8-12.1 27.4 3.2-2.1 6.5-6.6 18.9-6.5 4.7.1 13.2 3.1 24.2 8.8 5.4 2.4 15.5 6.9 24.1 7.9 1.2.1 3.2.1 4.3 0 7.8-.9 12.3-2.6 16.9-5 5-2.6 8.6-5.3 8.6-5.3s-.3 1.2-2.6 2.9c-3.4 2.4-10.9 6.1-14 7.2-3 1.1-9.5 3-15.8 2.1-4.9-.8-15.5-4.3-20.7-6.1-5.2-1.8-10.9-3.9-15.5-4.4-4.1-.5-9.8-1.5-17.8.6-1.8.4-3.4 1.3-4.8 2.4-3.1 2.6-7.7 7.6-8.1 15.9-.3 6 3.4 18.1 5.5 24.1 1.8 5.2 9.2 22.2 13.3 27.8 1.8 3.5 4.7 8.2 5.6 10.9z"/><g><path class="st0" d="M40 96.9v3h.9v-3.3zM41.3 97.2v3h.9v-3.3zM46.7 98.9v3h.9v-3.4zM47.9 99.2v3h.9v-3.3z"/></g><path class="st0" d="M32.2 143.7s-.3.3 0 .7v1.4l-3.5 4.2v1.2l-.4-.3-.8.8v1l-.8-.4-.2 1.5s-.6-.9-.3-2.4c.5-.5 1.1-.7 1.9-1.6s2.6-3.4 2.6-3.5v-1.1s-.6-.7-1.8-.9c-.8 0-3.8.2-6.8-1.4-2.1-1.7-2.7-3-4.8-3.8-1-.5-1.8-1-2.3-1.4-.6 0-1.9.3-2.6 1.2-.1-1.2 1.6-2.5 1.5-3.1H10s.6-1 2.9-1.2l.8-.2s.7-2.9 4.6-3.2c1.7 0 3.6 1.1 4.3 1.4 1.3 0 5 .2 7.9 1.1.9 0 4.9.4 7.9-.3 1.9-.8 2.1-.6 6.8-5.4 2.3-2.1 3-2.9 3.4-2.9H51s.1.9-.6 1.8c-.8.9-3.4 3.6-10.1 8.9-.2.3-.6.6 0 1.1.6.1.3.4.3.4l1.3.1.5.7s-.3.5-.9.6c-.6.2-2.2 0-2.6.1-.1.4-.6.4-1.7.6-.4.4-1.2 1.5-1.6 2-.1.5.6 1.9-.2 3.4-.1.8 0 7.9 0 7.9s-.5.1-.8.6-.4 1-.4 1l-.5-.4-.3 1.6s-.8-1.4 0-2.3c.6-.6 1.2-.8 1.2-.8l.1-7.7s-.5-.2-1.2-.9c-.5-.2-1.3-.1-1.3-.1zM191.5 142.3s-2 .4-3.3.2c.3-.5 5.3-3.9 6.6-4.2 0-.6.3-1 .3-1s3.4-3 5.6-4c.9-.8 3.3-3.8 6.8-4.2.9-.2 1.8-.8 2.1-1.2.3-.4 2.3-3.3 5.5-3.2 1 0 4 1 4.6 3.8.3.6.9 1.6 1.1 2.5-.8.1-1.5-.2-2.1.1-.6.2-.8.7-.9 1.3 0 .6.5 2.8-.4 4.5-1 1.5-3.4 5.2-9.3 7.2-.2.3-.2.4 0 .7s3 1.8 3.1 2.6.1 2.6-.3 3.2c-.3-.6-.5-2.3-.6-2.7-.2-.4-.5 1-1.3.9.2-.5.2-1.4.1-1.6-.1-.2-.9-.7-.9-.7l-.6.7-.1-1.9-.6-.4s-4.8.1-7.5-1.8c.2 1.1 1.2 2.7 1.8 3.4.5.7 1.3 1.6.7 2.3 0 .6.4 2.3-1 2l.2-.4.2-2.3-.7-.2s.2 1.1-1.2.7c.4-.3 1.1-1 .5-2-.6-.3-1.3-.3-1.3-.3s-.1-1 .4-1c0-.7 0-2.3-.9-2.9-.6-.2-2.1-.8-3.6-.3-.9.3-2.6.7-3.3 2-.1-.7.3-1.8.3-1.8z"/><g><path class="st2" d="M717.5 13.5H294c-.6 0-1.1-.7-1.1-1.7s.5-1.7 1.1-1.7h423.5c.6 0 1.1.7 1.1 1.7s-.5 1.7-1.1 1.7z"/><path class="st2" d="M717.5 14H294c-.9 0-1.6-.9-1.6-2.1s.7-2.1 1.6-2.1h423.5c.9 0 1.6.9 1.6 2.1s-.7 2.1-1.6 2.1zM294 10.7c-.3 0-.7.5-.7 1.2s.3 1.2.7 1.2h423.5c.3 0 .7-.5.7-1.2s-.3-1.2-.7-1.2H294zM296.5 221.7h421.1v1H296.5z"/><path class="st2" d="M717.8 223.9H294.3c-.6 0-1.1-.7-1.1-1.7 0-.9.5-1.7 1.1-1.7h423.5c.6 0 1.1.7 1.1 1.7.1.9-.4 1.7-1.1 1.7z"/><path class="st2" d="M717.8 224.3H294.3c-.9 0-1.6-.9-1.6-2.1s.7-2.1 1.6-2.1h423.5c.9 0 1.6.9 1.6 2.1s-.7 2.1-1.6 2.1zM294.3 221c-.3 0-.7.5-.7 1.2s.3 1.2.7 1.2h423.5c.3 0 .7-.5.7-1.2s-.3-1.2-.7-1.2H294.3z"/><path class="st1" d="M305 67.3c0 1.2.1 2.2.4 2.8s.7 1.1 1.4 1.3c.7.3 1.7.4 3 .4h2.1c2.5 0 4.7-.8 6.7-2.5 1.9-1.7 3.3-3.9 4.1-6.7 0-.1.2-.1.4-.1.3 0 .4.1.4.2-.3 2.4-.5 5.5-.5 9.3 0 .4-.1.6-.2.8-.2.2-.4.2-.8.2h-27.3c-.1 0-.1-.1-.1-.4s0-.4.1-.4c1.3 0 2.2-.1 2.8-.3.6-.2 1-.7 1.2-1.3.2-.7.3-1.7.3-3.1v-21c0-1.4-.1-2.4-.3-3-.2-.6-.6-1.1-1.2-1.3-.6-.3-1.5-.4-2.8-.4-.1 0-.1-.1-.1-.4s0-.4.1-.4l3.3.1c1.8.1 3.3.1 4.3.1 1.2 0 2.7 0 4.5-.1l3.1-.1c.1 0 .2.1.2.4s-.1.4-.2.4c-1.4 0-2.5.1-3.1.4-.7.3-1.1.7-1.3 1.4-.2.7-.3 1.7-.3 3.1v20.6h-.2zM367.3 72.7c0 .3-.1.4-.3.4-.9 0-2.3 0-4.3-.1-1.9-.1-3.3-.1-4.1-.1-.7 0-1.9 0-3.4.1s-2.5.1-3.1.1c-.2 0-.3-.1-.3-.4s.1-.4.3-.4c1.1 0 1.9-.1 2.4-.4.5-.3.7-.7.7-1.3s-.3-1.7-1-3.2l-4.3-9.3h-8.5l-2.7 6.6c-.8 1.9-1.2 3.4-1.2 4.4 0 1.1.4 2 1.2 2.5.8.5 2 .8 3.7.8.2 0 .3.1.3.4s-.1.4-.3.4c-.6 0-1.6 0-2.7-.1-1.3-.1-2.5-.1-3.6-.1s-2.5 0-4.1.1c-1.4.1-2.5.1-3.4.1-.2 0-.3-.1-.3-.4s.1-.4.3-.4c1.4 0 2.6-.2 3.4-.6.9-.4 1.7-1.2 2.4-2.3.7-1.1 1.6-2.9 2.6-5.3l10.2-24.1c.1-.2.2-.3.4-.3s.3.1.3.3L359 63.9c1.1 2.5 2.1 4.3 2.9 5.5s1.5 2 2.3 2.4 1.7.7 2.9.7c.1-.2.2-.1.2.2zm-25.4-16.2h7.1l-3.8-8.1-3.3 8.1zM411.5 72.7c0 .3-.1.4-.2.4-1.4 0-2.5 0-3.2-.1l-4.4-.1-4.4.1c-.8 0-1.9.1-3.2.1-.1 0-.2-.1-.2-.4s.1-.4.2-.4c1.4 0 2.4-.1 3-.3s1-.7 1.3-1.3c.2-.7.3-1.7.3-3.1v-9.8h-17.5v9.8c0 1.4.1 2.4.3 3.1.2.7.7 1.1 1.3 1.3.6.2 1.6.3 3 .3.1 0 .1.1.1.4s0 .4-.1.4c-1.4 0-2.5 0-3.2-.1l-4.5-.1-4.3.1c-.8 0-1.9.1-3.4.1-.1 0-.1-.1-.1-.4s0-.4.1-.4c1.4 0 2.4-.1 3.1-.3s1.1-.7 1.3-1.3c.2-.7.3-1.7.3-3.1v-21c0-1.4-.1-2.4-.3-3-.2-.6-.7-1.1-1.3-1.3-.7-.3-1.7-.4-3-.4-.1 0-.1-.1-.1-.4s0-.4.1-.4l3.3.1c1.8.1 3.3.1 4.3.1 1.2 0 2.7 0 4.5-.1l3.2-.1c.1 0 .1.1.1.4s0 .4-.1.4c-1.3 0-2.3.1-3 .4s-1.1.7-1.3 1.4c-.2.7-.3 1.7-.3 3.1v9.4h17.5v-9.4c0-1.4-.1-2.4-.3-3.1-.2-.7-.7-1.1-1.3-1.4-.6-.3-1.6-.4-3-.4-.1 0-.2-.1-.2-.4s.1-.4.2-.4l3.2.1c1.8.1 3.3.1 4.5.1 1.1 0 2.6 0 4.4-.1l3.2-.1c.1 0 .2.1.2.4s-.1.4-.2.4c-1.4 0-2.4.1-3 .4s-1.1.7-1.3 1.3c-.2.6-.3 1.7-.3 3v21c0 1.4.1 2.4.3 3.1.2.7.7 1.1 1.3 1.3.6.2 1.6.3 3 .3 0 0 .1.1.1.4zM432.5 73.2c-.5 0-1.2-.1-2.1-.1-.8 0-1.8-.1-2.8-.1l-4.3.1c-.8 0-1.9.1-3.4.1-.1 0-.1-.1-.1-.4s0-.4.1-.4c1.4 0 2.5-.1 3.1-.3s1.1-.7 1.3-1.3c.2-.7.3-1.7.3-3.1v-21c0-1.4-.1-2.4-.3-3-.2-.6-.7-1.1-1.3-1.3-.6-.3-1.6-.4-3-.4-.1 0-.1-.1-.1-.4s0-.4.1-.4l3.3.1c1.8.1 3.3.1 4.3.1 1.4 0 2.8-.1 4.3-.2 1.8-.1 3.2-.1 4.1-.1 3.8 0 7.2.7 10 2.1s4.9 3.3 6.4 5.7c1.5 2.4 2.2 5.2 2.2 8.2 0 3.2-.8 6-2.3 8.5s-3.6 4.5-6.3 5.9c-2.7 1.4-5.7 2.1-9.2 2.1-1.2-.2-2.7-.3-4.3-.4zm12.1-4.8c2.1-2.5 3.1-6.1 3.1-10.8 0-4.5-1-8.2-3.1-11.1-2-2.9-5.1-4.4-9.2-4.4-1.7 0-3 .3-3.7 1s-1.1 1.9-1.1 3.6v20.1c0 1.9.4 3.3 1.1 4.1s2.1 1.2 4.3 1.2c3.7 0 6.6-1.2 8.6-3.7zM490 63.8c.2 0 .3.1.3.2-.3 3.3-.5 6-.5 8.1 0 .4-.1.6-.2.8-.1.2-.4.2-.8.2h-25.6c-.1 0-.1-.1-.1-.4s0-.4.1-.4c1.4 0 2.4-.1 3-.3s1.1-.7 1.3-1.3c.2-.7.3-1.7.3-3.1v-21c0-1.4-.1-2.4-.3-3s-.7-1.1-1.3-1.3c-.6-.3-1.6-.4-3-.4-.1 0-.1-.1-.1-.4s0-.4.1-.4h24.3c.5 0 .7.2.7.6l.1 4.3c0 .9.1 2 .1 3.3 0 .1-.1.2-.4.2-.3 0-.4-.1-.4-.2-.6-2.1-1.7-3.8-3.4-5.2-1.7-1.4-3.4-2.1-5.3-2.1h-1c-1.2 0-2.1.1-2.6.4-.6.3-1 .7-1.2 1.3-.2.6-.3 1.6-.3 3V56c3.8-.1 6.5-.2 8.2-.4 1.6-.2 2.6-.3 2.8-.3.1 0 .2.2.3.5s.1.7.1 1c0 .4 0 .8-.1 1.2s-.2.6-.3.6c-.2 0-1.2-.1-2.8-.4-1.7-.3-4.4-.4-8.2-.5v9.8c0 1.3.1 2.3.3 3s.6 1.1 1.2 1.4c.6.3 1.5.4 2.6.4h1.6c2.1 0 4-.8 5.9-2.3s3.3-3.4 4.1-5.8c.1-.3.3-.4.5-.4zM535.2 41.4c0 .3-.1.4-.2.4-1.8 0-3.1.6-3.9 1.8-.8 1.2-1.2 3.1-1.2 5.7v24.5c0 .1-.1.2-.3.2s-.4 0-.5-.1l-23.7-27.4-.1-.1v18.4c0 2.6.4 4.5 1.2 5.7s2.1 1.8 3.8 1.8c.1 0 .1.1.1.4s0 .4-.1.4c-1.1 0-1.9 0-2.5-.1l-3.1-.1-3.2.1c-.6 0-1.5.1-2.7.1-.1 0-.1-.1-.1-.4s0-.4.1-.4c1.8 0 3.1-.6 3.9-1.8.8-1.2 1.2-3.1 1.2-5.7V44.9c-1.1-1.1-2.1-2-3-2.4-.8-.5-1.7-.7-2.5-.7-.1 0-.1-.1-.1-.4s0-.4.1-.4l3.8.1h5.4c.4 0 .7.1 1 .3.3.2.6.7 1.1 1.4l1.4 1.9 17.4 20.1V49.5c0-2.7-.4-4.6-1.2-5.8-.8-1.2-2-1.8-3.8-1.8-.1 0-.2-.1-.2-.4s.1-.4.2-.4l2.5.1c1.3.1 2.3.1 3.1.1s1.9 0 3.2-.1l2.6-.1c.2-.1.3 0 .3.3zM552.6 50.8c1.3 1.2 3.3 2.4 6 3.7 2 1.1 3.5 2 4.7 2.7 1.2.8 2.2 1.7 3 2.9s1.2 2.6 1.2 4.2c0 1.8-.5 3.4-1.5 4.9s-2.5 2.6-4.3 3.5c-1.8.8-3.9 1.3-6.3 1.3-2 0-3.8-.2-5.6-.7s-3.1-1.1-4-1.8c-.4-.2-.6-.7-.6-1.4l-.4-7.4v-.1c0-.2.1-.3.3-.3s.4.1.5.2c1.2 2.7 2.8 5.1 4.7 7.1s4 3 6.3 3c1.4 0 2.6-.4 3.6-1.3s1.5-2.2 1.5-3.9c0-2.1-.7-3.8-2.1-5.1-1.4-1.3-3.4-2.7-6.2-4.1-1.8-1-3.3-1.9-4.4-2.6-1.1-.8-2-1.7-2.8-2.8-.8-1.1-1.1-2.4-1.1-3.9 0-2.7 1.1-4.8 3.3-6.3s4.9-2.3 8.1-2.3c1.4 0 2.8.1 4.2.4s2.7.7 3.7 1.1c.4.2.6.4.8.5.1.2.2.4.3.8l.1 6.3c0 .2-.1.3-.3.3s-.4 0-.5-.1c-.3-.9-.8-1.9-1.6-3.2-.8-1.3-1.9-2.4-3.3-3.4s-2.9-1.5-4.6-1.5c-1.6 0-2.8.4-3.6 1.3s-1.2 2-1.2 3.4c.1 1.9.7 3.4 2.1 4.6zM587.6 70.6c.2.7.7 1.1 1.3 1.3s1.6.3 3 .3c.1 0 .1.1.1.4s0 .4-.1.4c-1.4 0-2.5 0-3.2-.1l-4.5-.1-4.3.1c-.8 0-1.9.1-3.4.1-.1 0-.1-.1-.1-.4s0-.4.1-.4c1.4 0 2.5-.1 3.1-.3s1.1-.7 1.3-1.3c.2-.7.3-1.7.3-3.1v-21c0-1.4-.1-2.4-.3-3s-.7-1.1-1.3-1.3c-.7-.3-1.7-.4-3.1-.4-.1 0-.1-.1-.1-.4s0-.4.1-.4l3.4.1c1.7.1 3.2.1 4.3.1 1.2 0 2.8 0 4.6-.1l3.2-.1c.1 0 .1.1.1.4s0 .4-.1.4c-1.3 0-2.3.1-3 .4s-1.1.7-1.3 1.4c-.2.7-.3 1.7-.3 3.1v20.9c-.1 1.3 0 2.4.2 3zM634.4 41.4c0 .3 0 .4-.1.4-2.7 0-4.8 1.9-6.3 5.8l-9.9 25.5c0 .2-.3.3-.8.3s-.7-.1-.8-.3L604 46.7c-.9-1.9-1.7-3.2-2.4-3.9-.7-.7-1.6-1-2.8-1-.1 0-.2-.1-.2-.4s.1-.4.2-.4l2.9.1c1.6.1 3 .1 4.3.1 1.2 0 2.7 0 4.4-.1l3-.1c.1 0 .1.1.1.4s0 .4-.1.4c-2.4 0-3.6.7-3.6 2.1 0 .5.2 1.2.6 2.1l9.2 19.3 6.8-18.1c.4-1 .6-1.8.6-2.4 0-2-1.5-3-4.4-3-.1 0-.2-.1-.2-.4s.1-.4.2-.4l2.4.1c1.5.1 2.8.1 4.1.1.7 0 1.7 0 2.8-.1l2.5-.1v.4zM667.9 43.3c-.9-1-2.3-1.5-4.4-1.5-.1 0-.2-.1-.2-.4s.1-.4.2-.4l2.8.1c1.5.1 2.7.1 3.6.1.7 0 1.8 0 3.2-.1l2.7-.1c.1 0 .1.1.1.4s0 .4-.1.4c-1.8 0-3.1.5-3.9 1.5-.8 1-1.2 2.8-1.2 5.2v12c0 4.3-1.2 7.6-3.5 10-2.4 2.4-5.5 3.6-9.5 3.6-2.6 0-4.9-.5-7.1-1.5-2.2-1-3.9-2.5-5.2-4.4s-1.9-4.2-1.9-6.9V46.7c0-1.4-.1-2.4-.3-3s-.7-1.1-1.3-1.3c-.6-.3-1.6-.4-3-.4-.1 0-.2-.1-.2-.4s.1-.4.2-.4l3.2.1c1.7.1 3.2.1 4.3.1 1.2 0 2.7 0 4.5-.1l3.2-.1c.1 0 .1.1.1.4s0 .4-.1.4c-1.4 0-2.4.1-3 .4s-1.1.7-1.3 1.4c-.3.7-.4 1.7-.4 3.1v12.5c0 4.1.9 7.2 2.8 9.1 1.9 1.9 4.3 2.9 7.4 2.9 3 0 5.3-.9 7-2.8 1.7-1.9 2.6-4.5 2.6-8V48.5c0-2.4-.4-4.1-1.3-5.2zM716.7 41.4c0 .3-.1.4-.2.4-1.8 0-3.1.6-3.9 1.8-.8 1.2-1.2 3.1-1.2 5.7v24.5c0 .1-.1.2-.3.2s-.4 0-.5-.1l-23.7-27.4-.1-.1v18.4c0 2.6.4 4.5 1.2 5.7s2.1 1.8 3.8 1.8c.1 0 .1.1.1.4s0 .4-.1.4c-1.1 0-1.9 0-2.5-.1l-3.1-.1-3.2.1c-.6 0-1.5.1-2.7.1-.1 0-.1-.1-.1-.4s0-.4.1-.4c1.8 0 3.1-.6 3.9-1.8.8-1.2 1.2-3.1 1.2-5.7V44.9c-1.1-1.1-2.1-2-3-2.4-.8-.5-1.7-.7-2.5-.7-.1 0-.1-.1-.1-.4s0-.4.1-.4l3.8.1h5.4c.4 0 .7.1 1 .3.3.2.6.7 1.1 1.4l1.4 1.9L710 64.8V49.5c0-2.7-.4-4.6-1.2-5.8-.8-1.2-2-1.8-3.8-1.8-.1 0-.2-.1-.2-.4s.1-.4.2-.4l2.5.1c1.3.1 2.3.1 3.1.1s1.9 0 3.2-.1l2.6-.1c.3-.1.3 0 .3.3zM405.9 194.5c0 .8-.2 1.3-.6 1.3h-26.1c-4.2 0-6.8-.2-7.7-.7-.9-.5-3.4-3.7-7.4-9.7s-8.9-12.7-14.6-20.1L334 145l-6.5 6.5v27.2c0 4.2.3 7.3 1.1 9.4.7 2 2 3.4 4 4.1s5.1 1.1 9.3 1.1c.3 0 .4.4.4 1.3s-.1 1.3-.4 1.3c-4.2 0-7.5-.1-9.9-.2l-13.7-.2-13.1.2c-2.5.1-6 .2-10.3.2-.3 0-.4-.4-.4-1.3s.1-1.3.4-1.3c4.2 0 7.3-.3 9.4-1.1 2-.7 3.4-2.1 4.1-4.1s1.1-5.2 1.1-9.4v-64.5c0-4.2-.4-7.3-1.1-9.3s-2.1-3.3-4.1-4.1-5.1-1.2-9.2-1.2c-.3 0-.4-.4-.4-1.3 0-.8.1-1.3.4-1.3l10.1.2c5.6.3 10 .4 13.1.4 3.7 0 8.3-.1 13.9-.4l9.7-.2c.3 0 .4.4.4 1.3 0 .8-.1 1.3-.4 1.3-4.1 0-7.1.4-9.2 1.3-2 .8-3.4 2.3-4.1 4.3s-1.1 5.2-1.1 9.4v29.7l28.2-28.2c5.8-5.8 8.6-10 8.6-12.6 0-2.5-2.5-3.8-7.6-3.8-.4 0-.6-.4-.6-1.3 0-.8.2-1.3.6-1.3l8.2.2c5.1.3 10 .4 14.7.4 6 0 11.3-.1 15.8-.4 1.3-.1 2.8-.2 4.6-.2.4 0 .6.4.6 1.3 0 .8-.2 1.3-.6 1.3-5.2 0-11.7 1.8-19.5 5.4-7.8 3.6-14.6 8.3-20.3 14l-13.5 13.3 16.9 21.7c9.3 12.2 16.2 20.9 20.6 26.1 4.5 5.2 8.2 8.7 11.1 10.4 2.9 1.8 6.1 2.6 9.8 2.6.6 0 .8.4.8 1.3zM441.6 191.2c-7.8-4.7-13.8-11-18.1-18.9-4.3-7.9-6.4-16.4-6.4-25.7 0-10.8 2.8-20.2 8.3-28 5.5-7.9 12.7-13.8 21.4-17.9 8.7-4.1 17.6-6.1 26.8-6.1 10 0 18.8 2.4 26.3 7.3 7.6 4.8 13.4 11.1 17.6 18.9 4.1 7.7 6.2 15.9 6.2 24.4 0 9.4-2.5 18.2-7.4 26.3-4.9 8.1-11.6 14.6-20.1 19.5-8.5 4.8-17.8 7.3-27.9 7.3-10 0-18.9-2.4-26.7-7.1zm53.1-9.2c5.4-7.7 8.1-18.4 8.1-32 0-9.3-1.5-17.7-4.4-25.4-3-7.7-7.2-13.7-12.6-18.2-5.5-4.5-11.9-6.7-19.4-6.7-9.1 0-16.2 3.5-21.1 10.5s-7.4 17.1-7.4 30.3c0 10 1.5 19 4.5 27.1s7.2 14.4 12.5 19.1c5.3 4.6 11.4 7 18.3 7 8.9-.1 16.1-3.9 21.5-11.7zM551.2 125.8c-.1.4-.6.6-1.3.6s-1.1-.2-1.1-.6c.6-4.4 1.2-10.1 1.8-17.2.6-7.1.9-12.5.9-16.1 0-.7.4-1.1 1.2-1.1s1.2.4 1.2 1.1c0 1.8 1.1 3 3.2 3.5s4.8.7 8 .7c12.1.3 22.7.4 31.8.4l18.3-.2c2.4-.1 5.6-.2 9.7-.2 5.3 0 9.3-.3 12-.9 2.7-.6 4.4-2 5.1-4.1.1-.4.6-.6 1.4-.6.8 0 1.2.2 1.2.6 0 .8-.1 3-.4 6.3-.1 3.5-.4 7.9-.6 13.2-.3 5.3-.5 10.2-.6 14.6 0 .4-.4.6-1.3.6-.8 0-1.3-.2-1.3-.6-.7-7.6-3.2-13.6-7.5-18.1s-9.6-6.7-15.9-6.7c-4.2 0-7.1.9-8.5 2.7-1.5 1.8-2.2 5.3-2.2 10.5v64.5c0 4.2.4 7.3 1.2 9.4.8 2 2.3 3.4 4.5 4.1s5.8 1.1 10.7 1.1c.4 0 .6.4.6 1.3s-.2 1.3-.6 1.3c-4.5 0-8.1-.1-10.7-.2l-15.4-.2-14.7.2c-2.7.1-6.4.2-11.2.2-.3 0-.4-.4-.4-1.3s.1-1.3.4-1.3c4.9 0 8.5-.3 10.9-1.1 2.3-.7 3.9-2.1 4.6-4.1.8-2 1.2-5.2 1.2-9.4v-64.9c0-3.8-.2-6.5-.6-8.2-.4-1.7-1.3-2.9-2.7-3.6-1.4-.7-3.7-1.1-6.7-1.1-12.7 0-21.4 8.3-26.2 24.9zM703.3 188c.7 2 2 3.4 4 4.1s5.1 1.1 9.3 1.1c.3 0 .4.4.4 1.3s-.1 1.3-.4 1.3c-4.2 0-7.5-.1-9.9-.2l-13.9-.2-13.1.2c-2.5.1-6 .2-10.3.2-.3 0-.4-.4-.4-1.3s.1-1.3.4-1.3c4.4 0 7.5-.3 9.5-1.1 2-.7 3.3-2.1 4-4.1s1.1-5.2 1.1-9.4v-64.5c0-4.2-.4-7.3-1.1-9.3-.7-2-2.1-3.3-4.1-4.1s-5.2-1.2-9.4-1.2c-.3 0-.4-.4-.4-1.3 0-.8.1-1.3.4-1.3l10.3.2c5.3.3 9.7.4 13.1.4 3.8 0 8.5-.1 14.1-.4l9.7-.2c.3 0 .4.4.4 1.3 0 .8-.1 1.3-.4 1.3-4.1 0-7.1.4-9.2 1.3-2 .8-3.4 2.3-4.1 4.3-.7 2-1.1 5.2-1.1 9.4v64.1c0 4.3.4 7.4 1.1 9.4z"/></g><path class="st0" d="m177.9 33.1.9-.6.6-1.4s3.5-5.5 5.8-7c.3-.7 2.2-2.7 5.2-2.8 1.4.3 4.2 1.4 4.9 2.1l.2.9s1 .7 1.5 1 4.7 1.3 5.1 1.5c.2.6-.4 2.2-2.9 3-.1.5-.3.3.4.7.1.6-.2 1.8-2 1.7 0 0-1.6-.5-3.7-.5-2 0-3 0-3.5 1.5-.1 1 0 1.4 0 1.4s-.7.4 0 .9c.4.7 1.9 3.3 2.3 4 .5.2.8.2 1.4 0s3-1.8 4.8-3.6c1.2-.7 1.7-.5 4.5-1.3 1.2-.6 1.3-.9 2.7-1.1.8-.5 1.9-.8 2.4-.8.3.5.6 0 .5.5s-.7 2.8-2.8 2.8l-.2.5-1.9-.1s.3.3-1.6.5v1.2l-1.6-.2-7.4 7.4s.4.9-.9.5c-.8-.3-2-1.5-2.9-1.5-.4.6-1.7 2.3-1.8 2.9-.1.7-.6 3.1-.9 4.4-.3 1.3-.5 2.3-.3 3.1.2.8.1 1.4 0 2.3s0 2.5 1.2 4c.9.2 3.2-.1 3.3 1.9l-.6.3s-2.3.1-3.2 0c-.6-.2-1.4-.2-1.4-.2s-.2-.7-.2-1.3c-.4-.5-1.2-2.4-1.2-2.4l-.9-.1s-.1-.6.2-.9c.1-.7-.3-6.6-.3-6.6s-4.7 1.9-6.3 2c-.3.8-.4 1.8-1.2 2.6.4.6.8 2.1-1.3 2.4-.8.2-1.3.4-1.7 1.2.5.1.7.3 1.6.1s3.9-.1 4.5 1.1c.1.7-.2.8-1 .9-.8.1-1.7.5-3.7-.1-1 0-5.6.2-5.6.2s-2 1.2-1.8 1.5c0 .3.6.2 1.2.3.6.1 3.6-.1 5.1 1.5-.1.5-.6 1.2-4 .6-1.3 0-3.6-.3-5-.5s-2-1.2-1.3-1.9c.7-.6 1.4-.7 1.4-1.1s-2.6-2.2-2.6-3c-.8 0-4.1.5-6.1-.4-2-.8-4.3-1.8-4.8-5.1.6-.5 2.1-1.2 3-.2s1.7 2 2.1 2.2c.4.2 3.7.2 4.2.2.5-.9 4.4-10.4 10.5-15.6.3-1.2 5.4-6.2 7.1-7.5z"/></svg>
