<svg aria-hidden="true" width="1920" height="603.34" data-name="Layer 1" xmlns="http://www.w3.org/2000/svg" viewBox="0 0 1920 603.34"><defs><style>.puuteri-1{fill:#edd1b8;}</style></defs><path class="puuteri-1" d="M872.23,371.39c0-40.84-62.14-76.2-44.82-105.12,28.17-47,78.25-75.34,147-75.34,112.38,0,173.39,72.57,173.39,181.1,0,106-62.93,180.45-174.67,180.45-74.51,0-124.47-31.75-150.57-82.18C808.2,442.5,872.23,408.36,872.23,371.39ZM1047,461.93c15.41-19.26,21.83-51.37,21.83-89.26v-3.85c0-38.53-9-64.86-25-84.13-14.77-17.33-37.25-29.53-70.64-29.53-31.47,0-55.23,10.91-70.64,28.25-14.77,18.62-21.84,46.24-21.84,85.41v3.85c0,38.53,8.36,64.86,23.77,83.49,15.41,17.33,38.52,31.46,67.42,31.46C1004,487.62,1031,478.63,1047,461.93Z"/><path class="puuteri-1" d="M1416,190.93c-61,0-114.07,81.93-129.7,124.53l.78-114.25h-82.35V541.56h82.15V366.25c0-15.48,0-109.81,90.6-109.81,23.75,0,34.67,7.06,41.1,14.77,8.34,9,10.27,25,10.27,75.78V541.56h80.91V338C1509.75,273.78,1509.75,190.93,1416,190.93Z"/><path class="puuteri-1" d="M660.74,190.93c-61,0-114.07,81.93-129.71,124.53l.79-258.74H449.46V541.56h82.15V366.25c0-15.48,0-109.81,90.6-109.81,23.76,0,34.68,7.06,41.1,14.77,8.35,9,10.27,25,10.27,75.78V541.56H754.5V338C754.5,273.78,754.5,190.93,660.74,190.93Z"/><path class="puuteri-1" d="M1884.52,541.11c0-64.5-.06-82.17-.06-115.57V316.37c0-77.7-51.37-125.87-150.27-125.87-62.29,0-102.84,21.84-147.79,64.22l43.76,39.82c24.41-30.18,52-45.6,100.18-45.6,52.66,0,78.35,18.58,78.35,71.88,0,0-1.21.83-2,1.26q-9.76,5.46-31.27,7.86t-56,6a514.59,514.59,0,0,0-53.52,8.65,187.06,187.06,0,0,0-47.52,16.85,88.71,88.71,0,0,0-33.77,30.28q-12.51,19.13-12.5,48.72,0,34.36,17.13,58t46.64,36.09q29.52,12.4,66,12.4c76.94,0,99.78-52.88,106.53-82.27V541ZM1805.08,452q-11.62,18.1-33.76,29.26t-53.15,11.15q-31.77,0-52.27-12.86t-20.51-38.13a67.22,67.22,0,0,1,8.38-32.35c6.34-11.39,17-25.36,67.48-45.72,58.92-23.77,79.55-31.55,87.44-34.68v.58c0,14.8-.25,18.4-.25,18.4v91C1807.47,445.21,1806.36,450,1805.08,452Z"/><path class="puuteri-1" d="M108.71,426.85c0,28.36,30,114.71,101.28,114.71,42.39,0,69.27-71.92,83.39-95l59.73,44.31c-28.9,36.61-78.35,61.65-146.42,61.65-105.31,0-171.46-63.57-171.46-177.88,0-55.87,16.69-104.68,48.8-136.78,30.19-30.83,75.14-46.89,124.59-46.89,50.09,0,91.19,15.42,119.44,43,30.83,30.83,42.39,75.14,42.39,132.29v48.63l-113.19-.76c-104.58,0,3.95-.63-148.18-.63Zm.37-70.76H296c-.64-27,.36-100.32-93.12-100.32C105.86,255.77,110.37,329.12,109.08,356.09Z"/></svg>
