<svg aria-hidden="true" width="32" height="32" viewBox="0 0 32 32" fill="none" xmlns="http://www.w3.org/2000/svg">
<path d="M21.333 10.6665C23.4547 10.6665 25.4896 11.5094 26.9899 13.0096C28.4902 14.5099 29.333 16.5448 29.333 18.6665V27.9998H23.9997V18.6665C23.9997 17.9593 23.7187 17.281 23.2186 16.7809C22.7185 16.2808 22.0403 15.9998 21.333 15.9998C20.6258 15.9998 19.9475 16.2808 19.4474 16.7809C18.9473 17.281 18.6663 17.9593 18.6663 18.6665V27.9998H13.333V18.6665C13.333 16.5448 14.1759 14.5099 15.6762 13.0096C17.1764 11.5094 19.2113 10.6665 21.333 10.6665V10.6665Z" stroke="currentColor" stroke-width="2" stroke-linecap="round" stroke-linejoin="round"/>
<path d="M8.00033 12H2.66699V28H8.00033V12Z" stroke="currentColor" stroke-width="2" stroke-linecap="round" stroke-linejoin="round"/>
<path d="M5.33366 7.99984C6.80642 7.99984 8.00033 6.80593 8.00033 5.33317C8.00033 3.86041 6.80642 2.6665 5.33366 2.6665C3.8609 2.6665 2.66699 3.86041 2.66699 5.33317C2.66699 6.80593 3.8609 7.99984 5.33366 7.99984Z" stroke="currentColor" stroke-width="2" stroke-linecap="round" stroke-linejoin="round"/>
</svg>
