<svg aria-hidden="true" width="32" height="32" viewBox="0 0 32 32" fill="none" xmlns="http://www.w3.org/2000/svg">
<path d="M30.0538 8.55967C29.8954 7.92689 29.5728 7.3471 29.1186 6.87888C28.6645 6.41066 28.0948 6.07059 27.4671 5.89301C25.1738 5.33301 16.0004 5.33301 16.0004 5.33301C16.0004 5.33301 6.8271 5.33301 4.53377 5.94634C3.9061 6.12392 3.33641 6.464 2.88223 6.93222C2.42806 7.40044 2.10549 7.98022 1.9471 8.61301C1.52739 10.9404 1.32208 13.3014 1.33377 15.6663C1.31881 18.0491 1.52413 20.4281 1.9471 22.773C2.12172 23.3861 2.45151 23.9439 2.90463 24.3923C3.35774 24.8408 3.91886 25.1648 4.53377 25.333C6.8271 25.9463 16.0004 25.9463 16.0004 25.9463C16.0004 25.9463 25.1738 25.9463 27.4671 25.333C28.0948 25.1554 28.6645 24.8154 29.1186 24.3471C29.5728 23.8789 29.8954 23.2991 30.0538 22.6663C30.4702 20.3565 30.6755 18.0135 30.6671 15.6663C30.6821 13.2836 30.4767 10.9046 30.0538 8.55967V8.55967Z" stroke="currentColor" stroke-width="2" stroke-linecap="round" stroke-linejoin="round"/>
<path d="M13 20.0266L20.6667 15.6666L13 11.3066V20.0266Z" stroke="currentColor" stroke-width="2" stroke-linecap="round" stroke-linejoin="round"/>
</svg>
