<svg aria-hidden="true" data-name="Layer 1" xmlns="http://www.w3.org/2000/svg" viewBox="0 0 1920 1080"><defs><style>.tummansininen-o-1{fill:#123340;}</style></defs><path class="tummansininen-o-1" d="M947.73,87c-172.54,0-298.15,71-368.8,189-43.46,72.54,112.42,161.23,112.42,263.68,0,92.75-160.63,178.36-124.53,248.11C632.3,914.29,757.61,993.93,944.5,993.93c280.29,0,438.16-186.86,438.16-452.64C1382.66,269.06,1229.63,87,947.73,87Zm.8,744.94c-139,0-236-84.68-236-291.49,0-207.66,95.36-291.48,236-291.48,147.39,0,236,83.82,236,291.48C1184.52,747.29,1095.87,832,948.53,832Z"/></svg>
